M48
METRIC,LZ,000.000
;FILE_FORMAT=3:3
;TYPE=PLATED
;Layer: Drill PTH
;EasyEDA v6.4.25, 2021-11-27T09:28:47--8:00
;2bb479a7f6b54dcc958ccff802dfd9b2,a81d661f06f64e70a3419793c5b4ef82,10
;Gerber Generator version 0.2
;Holesize 1 = 0.301 mm
T01C0.301
;Holesize 2 = 0.306 mm
T02C0.306
;Holesize 3 = 0.600 mm
T03C0.600
;Holesize 4 = 0.701 mm
T04C0.701
;Holesize 5 = 0.712 mm
T05C0.712
;Holesize 6 = 0.800 mm
T06C0.800
;Holesize 7 = 0.803 mm
T07C0.803
;Holesize 8 = 0.889 mm
T08C0.889
;Holesize 9 = 0.900 mm
T09C0.900
;Holesize 10 = 0.901 mm
T10C0.901
;Holesize 11 = 0.915 mm
T11C0.915
;Holesize 12 = 0.966 mm
T12C0.966
;Holesize 13 = 1.101 mm
T13C1.101
%
G05
G90
T01
X127244Y065356
X123899Y068543
T02
X023056Y062279
X029664Y098719
X115246Y014606
X114076Y018666
X101723Y029424
X046512Y028537
X140746Y029836
X005885Y031935
X093411Y036484
X005940Y032699
X070893Y068492
X072297Y042545
X049545Y072499
X094266Y041634
X130829Y023170
X070167Y041634
X077267Y025632
X088056Y012637
X067131Y065076
X045729Y060314
X068923Y062218
X071908Y070139
X070398Y070359
X095326Y073589
X068606Y052615
X043008Y049549
X071597Y058579
X074078Y067945
X073669Y054190
X034493Y040452
X034493Y037465
X007608Y030571
X044710Y034048
X025111Y035244
X009299Y047718
X105884Y030900
X007972Y031488
X051415Y023812
X077709Y036195
X130446Y071791
X131067Y078232
X051865Y064255
X074283Y062944
X048407Y052604
X042225Y023415
X120370Y080772
X130300Y084041
X074680Y056000
X021191Y061352
X047766Y057969
X045335Y059419
X027995Y058158
X044614Y060955
X051872Y065091
X047358Y036879
X073864Y039126
X100770Y034663
X058013Y068926
X143886Y061595
X098271Y074291
X095318Y077842
X057589Y083470
X058772Y083850
X084711Y012821
X067893Y067078
X085729Y012964
X067249Y065903
X068002Y064081
X056823Y091603
X072190Y063263
X058575Y090638
X060210Y088654
X056502Y089790
X054864Y091282
X079556Y074337
X088773Y091209
X048773Y079664
X051390Y079519
X093091Y076116
X085670Y052994
X086106Y091630
X104846Y058422
X115681Y088177
X116626Y088957
X106769Y050165
X018320Y084956
T03
X079756Y008001
X082296Y008001
X084836Y008001
T04
X118364Y010160
X118364Y008890
X118364Y007620
T05
X110236Y014224
X107696Y014224
X105156Y014224
X102616Y014224
X100076Y014224
X097536Y014224
X094996Y014224
X094996Y006604
X097536Y006604
X100076Y006604
X102616Y006604
X105156Y006604
X107696Y006604
X110236Y006604
X110236Y025019
X107696Y025019
X105156Y025019
X102616Y025019
X100076Y025019
X097536Y025019
X094996Y025019
X094996Y017399
X097536Y017399
X100076Y017399
X102616Y017399
X105156Y017399
X107696Y017399
X110236Y017399
X011176Y073025
X011176Y075565
X011176Y078105
X011176Y080645
X011176Y083185
X011176Y085725
X011176Y088265
X011176Y090805
X003556Y090805
X003556Y088265
X003556Y085725
X003556Y083185
X003556Y080645
X003556Y078105
X003556Y075565
X003556Y073025
X139954Y032385
X139954Y034925
X139954Y037465
X139954Y040005
X139954Y042545
X139954Y045085
X139954Y047625
X139954Y050165
X139954Y052705
X139954Y055245
X139954Y057785
X139954Y060325
X139954Y062865
X139954Y065405
X124714Y065405
X124714Y062865
X124714Y060325
X124714Y057785
X124714Y055245
X124714Y052705
X124714Y050165
X124714Y047625
X124714Y045085
X124714Y042545
X124714Y040005
X124714Y037465
X124714Y034925
X124714Y032385
X019050Y006096
X021590Y006096
X024130Y006096
X026670Y006096
X029210Y006096
X031750Y006096
X034290Y006096
X036830Y006096
X039370Y006096
X041910Y006096
X044450Y006096
X046990Y006096
X049530Y006096
X052070Y006096
X052070Y021336
X049530Y021336
X046990Y021336
X044450Y021336
X041910Y021336
X039370Y021336
X036830Y021336
X034290Y021336
X031750Y021336
X029210Y021336
X026670Y021336
X024130Y021336
X021590Y021336
X019050Y021336
X018796Y032385
X018796Y034925
X018796Y037465
X018796Y040005
X018796Y042545
X018796Y045085
X018796Y047625
X018796Y050165
X018796Y052705
X018796Y055245
X018796Y057785
X018796Y060325
X018796Y062865
X018796Y065405
X003556Y065405
X003556Y062865
X003556Y060325
X003556Y057785
X003556Y055245
X003556Y052705
X003556Y050165
X003556Y047625
X003556Y045085
X003556Y042545
X003556Y040005
X003556Y037465
X003556Y034925
X003556Y032385
X053213Y084709
X055753Y084709
X003556Y012065
X003556Y009525
X006096Y028956
X008636Y028956
X061214Y028321
X063754Y028321
X082042Y028321
X084582Y028321
X102870Y028321
X105410Y028321
X127254Y069469
X124714Y069469
X088646Y014224
X091186Y014224
X113919Y017399
X113919Y019939
X005461Y069723
X008001Y069723
X141097Y011684
X141097Y009144
X126111Y014859
X123571Y014859
T06
X136525Y009287
X136525Y011287
X031877Y034160G85X031877Y034166
X024257Y034160G85X024257Y034166
X024257Y049400G85X024257Y049406
X031877Y049400G85X031877Y049406
X124457Y075311G85X124463Y075311
X124457Y082931G85X124463Y082931
X139697Y082931G85X139703Y082931
X139697Y075311G85X139703Y075311
X031877Y062862G85X031877Y062868
X024257Y062862G85X024257Y062868
X024257Y078102G85X024257Y078108
X031877Y078102G85X031877Y078108
T07
X040386Y080645
X040386Y078105
X040386Y075565
X040386Y073025
X040386Y070485
X040386Y067945
X040386Y065405
X040386Y062865
X040386Y060325
X040386Y057785
X040386Y055245
X040386Y052705
X040386Y050165
X040386Y047625
X040386Y045085
X040386Y042545
X040386Y040005
X040386Y037465
X040386Y034925
X040386Y032385
X055626Y032385
X055626Y034925
X055626Y037465
X055626Y040005
X055626Y042545
X055626Y045085
X055626Y047625
X055626Y050165
X055626Y052705
X055626Y055245
X055626Y057785
X055626Y060325
X055626Y062865
X055626Y065405
X055626Y067945
X055626Y070485
X055626Y073025
X055626Y075565
X055626Y078105
X055626Y080645
X061214Y080645
X061214Y078105
X061214Y075565
X061214Y073025
X061214Y070485
X061214Y067945
X061214Y065405
X061214Y062865
X061214Y060325
X061214Y057785
X061214Y055245
X061214Y052705
X061214Y050165
X061214Y047625
X061214Y045085
X061214Y042545
X061214Y040005
X061214Y037465
X061214Y034925
X061214Y032385
X076454Y032385
X076454Y034925
X076454Y037465
X076454Y040005
X076454Y042545
X076454Y045085
X076454Y047625
X076454Y050165
X076454Y052705
X076454Y055245
X076454Y057785
X076454Y060325
X076454Y062865
X076454Y065405
X076454Y067945
X076454Y070485
X076454Y073025
X076454Y075565
X076454Y078105
X076454Y080645
X082042Y080645
X082042Y078105
X082042Y075565
X082042Y073025
X082042Y070485
X082042Y067945
X082042Y065405
X082042Y062865
X082042Y060325
X082042Y057785
X082042Y055245
X082042Y052705
X082042Y050165
X082042Y047625
X082042Y045085
X082042Y042545
X082042Y040005
X082042Y037465
X082042Y034925
X082042Y032385
X097282Y032385
X097282Y034925
X097282Y037465
X097282Y040005
X097282Y042545
X097282Y045085
X097282Y047625
X097282Y050165
X097282Y052705
X097282Y055245
X097282Y057785
X097282Y060325
X097282Y062865
X097282Y065405
X097282Y067945
X097282Y070485
X097282Y073025
X097282Y075565
X097282Y078105
X097282Y080645
X102870Y080645
X102870Y078105
X102870Y075565
X102870Y073025
X102870Y070485
X102870Y067945
X102870Y065405
X102870Y062865
X102870Y060325
X102870Y057785
X102870Y055245
X102870Y052705
X102870Y050165
X102870Y047625
X102870Y045085
X102870Y042545
X102870Y040005
X102870Y037465
X102870Y034925
X102870Y032385
X118110Y032385
X118110Y034925
X118110Y037465
X118110Y040005
X118110Y042545
X118110Y045085
X118110Y047625
X118110Y050165
X118110Y052705
X118110Y055245
X118110Y057785
X118110Y060325
X118110Y062865
X118110Y065405
X118110Y067945
X118110Y070485
X118110Y073025
X118110Y075565
X118110Y078105
X118110Y080645
T08
X144399Y019177
X141859Y019177
X144399Y021717
X141859Y021717
X144399Y024257
X141859Y024257
X144399Y026797
X141859Y026797
X145923Y090932
X145923Y088392
X145923Y085852
X145923Y083312
X145923Y080772
X145923Y078232
X145923Y075692
X145923Y073152
X141859Y093091
X139319Y093091
X136779Y093091
X134239Y093091
X131699Y093091
X129159Y093091
X126619Y093091
X124079Y093091
X074676Y002540
X077216Y002540
X079756Y002540
X082296Y002540
X084836Y002540
X087376Y002540
X089916Y002540
X092456Y002540
X094996Y002540
X097536Y002540
X100076Y002540
X102616Y002540
X105156Y002540
X107696Y002540
X110236Y002540
X112776Y002540
X145923Y069977
X145923Y067437
X145923Y064897
X145923Y062357
X145923Y059817
X145923Y057277
X145923Y054737
X145923Y052197
X145923Y049657
X145923Y047117
X145923Y044577
X145923Y042037
X145923Y039497
X145923Y036957
X145923Y034417
X145923Y031877
X144399Y011684
X144399Y009144
X030734Y095631
X028194Y095631
T09
X018796Y087503
X018796Y079883
X014859Y069215
X014859Y076835
X014859Y087503
X014859Y079883
X036576Y084709
X044196Y084709
X037338Y078105
X037338Y070485
X133477Y014478
X141097Y014478
X037338Y067945
X037338Y060325
X124714Y028321
X132334Y028321
T10
X018034Y096500
X020534Y094000
X015534Y094000
T11
X029464Y087884
X029464Y090424
X042037Y093091
X042037Y095631
X044577Y093091
X044577Y095631
X069469Y093091
X069469Y095631
X072009Y093091
X072009Y095631
X096901Y093091
X096901Y095631
X099441Y093091
X099441Y095631
T12
X124841Y021971
X124841Y019431
X036576Y093091
X036576Y095631
T13
X026797Y057023
X024257Y057023
X130683Y019177
X130683Y021717
X065659Y095631
X065659Y093091
X063119Y095631
X063119Y093091
X060579Y095631
X060579Y093091
X058039Y095631
X058039Y093091
X055499Y095631
X055499Y093091
X052959Y095631
X052959Y093091
X050419Y095631
X050419Y093091
X047879Y095631
X047879Y093091
X093091Y095631
X093091Y093091
X090551Y095631
X090551Y093091
X088011Y095631
X088011Y093091
X085471Y095631
X085471Y093091
X082931Y095631
X082931Y093091
X080391Y095631
X080391Y093091
X077851Y095631
X077851Y093091
X075311Y095631
X075311Y093091
X120523Y095631
X120523Y093091
X117983Y095631
X117983Y093091
X115443Y095631
X115443Y093091
X112903Y095631
X112903Y093091
X110363Y095631
X110363Y093091
X107823Y095631
X107823Y093091
X105283Y095631
X105283Y093091
X102743Y095631
X102743Y093091
X121590Y011648
X121590Y007148
X128092Y011648
X128092Y007148
M30
