G04 Layer: TopSilkLayer*
G04 EasyEDA v6.4.25, 2021-11-27T09:28:47--8:00*
G04 2bb479a7f6b54dcc958ccff802dfd9b2,a81d661f06f64e70a3419793c5b4ef82,10*
G04 Gerber Generator version 0.2*
G04 Scale: 100 percent, Rotated: No, Reflected: No *
G04 Dimensions in millimeters *
G04 leading zeros omitted , absolute positions ,4 integer and 5 decimal *
%FSLAX45Y45*%
%MOMM*%

%ADD10C,0.2540*%
%ADD34C,0.2286*%
%ADD35C,0.5080*%
%ADD36C,0.1200*%
%ADD37C,0.2030*%
%ADD38C,0.2032*%
%ADD39C,0.2007*%
%ADD40C,0.2030*%
%ADD41C,0.3000*%
%ADD42C,0.1524*%
%ADD43C,0.2000*%

%LPD*%
D42*
X14770100Y9130537D02*
G01*
X14770100Y9035034D01*
X14770100Y9130537D02*
G01*
X14801850Y9130537D01*
X14815566Y9125965D01*
X14824709Y9117076D01*
X14829281Y9107931D01*
X14833854Y9094215D01*
X14833854Y9071610D01*
X14829281Y9057894D01*
X14824709Y9048750D01*
X14815566Y9039605D01*
X14801850Y9035034D01*
X14770100Y9035034D01*
X14891004Y9130537D02*
G01*
X14877288Y9125965D01*
X14868397Y9112504D01*
X14863825Y9089644D01*
X14863825Y9076181D01*
X14868397Y9053321D01*
X14877288Y9039605D01*
X14891004Y9035034D01*
X14900147Y9035034D01*
X14913609Y9039605D01*
X14922754Y9053321D01*
X14927325Y9076181D01*
X14927325Y9089644D01*
X14922754Y9112504D01*
X14913609Y9125965D01*
X14900147Y9130537D01*
X14891004Y9130537D01*
X14806422Y7035037D02*
G01*
X14770100Y6939534D01*
X14806422Y7035037D02*
G01*
X14842743Y6939534D01*
X14783816Y6971537D02*
G01*
X14829281Y6971537D01*
X14900147Y7035037D02*
G01*
X14886431Y7030465D01*
X14877288Y7017004D01*
X14872716Y6994144D01*
X14872716Y6980681D01*
X14877288Y6957821D01*
X14886431Y6944105D01*
X14900147Y6939534D01*
X14909291Y6939534D01*
X14922754Y6944105D01*
X14931897Y6957821D01*
X14936470Y6980681D01*
X14936470Y6994144D01*
X14931897Y7017004D01*
X14922754Y7030465D01*
X14909291Y7035037D01*
X14900147Y7035037D01*
X14757400Y7352537D02*
G01*
X14757400Y7257034D01*
X14757400Y7352537D02*
G01*
X14789150Y7352537D01*
X14802866Y7347965D01*
X14812009Y7339076D01*
X14816581Y7329931D01*
X14821154Y7316215D01*
X14821154Y7293610D01*
X14816581Y7279894D01*
X14812009Y7270750D01*
X14802866Y7261605D01*
X14789150Y7257034D01*
X14757400Y7257034D01*
X14914625Y7352537D02*
G01*
X14869159Y7257034D01*
X14851125Y7352537D02*
G01*
X14914625Y7352537D01*
X14768322Y3225037D02*
G01*
X14732000Y3129534D01*
X14768322Y3225037D02*
G01*
X14804643Y3129534D01*
X14745716Y3161537D02*
G01*
X14791181Y3161537D01*
X14834616Y3207004D02*
G01*
X14843759Y3211576D01*
X14857475Y3225037D01*
X14857475Y3129534D01*
X14942058Y3225037D02*
G01*
X14896591Y3225037D01*
X14892020Y3184144D01*
X14896591Y3188715D01*
X14910308Y3193287D01*
X14923770Y3193287D01*
X14937486Y3188715D01*
X14946629Y3179571D01*
X14951202Y3166110D01*
X14951202Y3156965D01*
X14946629Y3143250D01*
X14937486Y3134105D01*
X14923770Y3129534D01*
X14910308Y3129534D01*
X14896591Y3134105D01*
X14892020Y3138678D01*
X14887447Y3147821D01*
X13119861Y9474200D02*
G01*
X13215366Y9474200D01*
X13119861Y9474200D02*
G01*
X13119861Y9515094D01*
X13124434Y9528810D01*
X13129006Y9533381D01*
X13137895Y9537954D01*
X13147040Y9537954D01*
X13156184Y9533381D01*
X13160756Y9528810D01*
X13165327Y9515094D01*
X13165327Y9474200D01*
X13165327Y9505950D02*
G01*
X13215366Y9537954D01*
X13119861Y9599676D02*
G01*
X13215366Y9599676D01*
X13119861Y9567926D02*
G01*
X13119861Y9631426D01*
X13133324Y9725152D02*
G01*
X13124434Y9716008D01*
X13119861Y9702292D01*
X13119861Y9684258D01*
X13124434Y9670542D01*
X13133324Y9661397D01*
X13142468Y9661397D01*
X13151611Y9665970D01*
X13156184Y9670542D01*
X13160756Y9679686D01*
X13169900Y9706863D01*
X13174218Y9716008D01*
X13178790Y9720579D01*
X13187934Y9725152D01*
X13201650Y9725152D01*
X13210793Y9716008D01*
X13215366Y9702292D01*
X13215366Y9684258D01*
X13210793Y9670542D01*
X13201650Y9661397D01*
X13396468Y9542271D02*
G01*
X13387324Y9537954D01*
X13378434Y9528810D01*
X13373861Y9519665D01*
X13373861Y9501378D01*
X13378434Y9492487D01*
X13387324Y9483344D01*
X13396468Y9478771D01*
X13410184Y9474200D01*
X13432790Y9474200D01*
X13446506Y9478771D01*
X13455650Y9483344D01*
X13464793Y9492487D01*
X13469366Y9501378D01*
X13469366Y9519665D01*
X13464793Y9528810D01*
X13455650Y9537954D01*
X13446506Y9542271D01*
X13373861Y9604247D02*
G01*
X13469366Y9604247D01*
X13373861Y9572497D02*
G01*
X13373861Y9635997D01*
X13387324Y9729724D02*
G01*
X13378434Y9720579D01*
X13373861Y9706863D01*
X13373861Y9688829D01*
X13378434Y9675113D01*
X13387324Y9665970D01*
X13396468Y9665970D01*
X13405611Y9670542D01*
X13410184Y9675113D01*
X13414756Y9684258D01*
X13423900Y9711436D01*
X13428218Y9720579D01*
X13432790Y9725152D01*
X13441934Y9729724D01*
X13455650Y9729724D01*
X13464793Y9720579D01*
X13469366Y9706863D01*
X13469366Y9688829D01*
X13464793Y9675113D01*
X13455650Y9665970D01*
X13627861Y9505950D02*
G01*
X13723366Y9505950D01*
X13627861Y9474200D02*
G01*
X13627861Y9537954D01*
X13627861Y9567926D02*
G01*
X13723366Y9631426D01*
X13627861Y9631426D02*
G01*
X13723366Y9567926D01*
X13627861Y9661397D02*
G01*
X13723366Y9661397D01*
X13627861Y9661397D02*
G01*
X13627861Y9693402D01*
X13632434Y9706863D01*
X13641324Y9716008D01*
X13650468Y9720579D01*
X13664184Y9725152D01*
X13686790Y9725152D01*
X13700506Y9720579D01*
X13709650Y9716008D01*
X13718793Y9706863D01*
X13723366Y9693402D01*
X13723366Y9661397D01*
X13881861Y9474200D02*
G01*
X13977366Y9474200D01*
X13881861Y9474200D02*
G01*
X13881861Y9515094D01*
X13886434Y9528810D01*
X13891006Y9533381D01*
X13899895Y9537954D01*
X13909040Y9537954D01*
X13918184Y9533381D01*
X13922756Y9528810D01*
X13927327Y9515094D01*
X13927327Y9474200D01*
X13927327Y9505950D02*
G01*
X13977366Y9537954D01*
X13881861Y9567926D02*
G01*
X13977366Y9631426D01*
X13881861Y9631426D02*
G01*
X13977366Y9567926D01*
X13881861Y9661397D02*
G01*
X13977366Y9661397D01*
X13881861Y9661397D02*
G01*
X13881861Y9693402D01*
X13886434Y9706863D01*
X13895324Y9716008D01*
X13904468Y9720579D01*
X13918184Y9725152D01*
X13940790Y9725152D01*
X13954506Y9720579D01*
X13963650Y9716008D01*
X13972793Y9706863D01*
X13977366Y9693402D01*
X13977366Y9661397D01*
X14158468Y9542271D02*
G01*
X14149324Y9537954D01*
X14140434Y9528810D01*
X14135861Y9519665D01*
X14135861Y9501378D01*
X14140434Y9492487D01*
X14149324Y9483344D01*
X14158468Y9478771D01*
X14172184Y9474200D01*
X14194790Y9474200D01*
X14208506Y9478771D01*
X14217650Y9483344D01*
X14226793Y9492487D01*
X14231366Y9501378D01*
X14231366Y9519665D01*
X14226793Y9528810D01*
X14217650Y9537954D01*
X14208506Y9542271D01*
X14194790Y9542271D01*
X14194790Y9519665D02*
G01*
X14194790Y9542271D01*
X14135861Y9572497D02*
G01*
X14231366Y9572497D01*
X14135861Y9572497D02*
G01*
X14231366Y9635997D01*
X14135861Y9635997D02*
G01*
X14231366Y9635997D01*
X14135861Y9665970D02*
G01*
X14231366Y9665970D01*
X14135861Y9665970D02*
G01*
X14135861Y9697720D01*
X14140434Y9711436D01*
X14149324Y9720579D01*
X14158468Y9725152D01*
X14172184Y9729724D01*
X14194790Y9729724D01*
X14208506Y9725152D01*
X14217650Y9720579D01*
X14226793Y9711436D01*
X14231366Y9697720D01*
X14231366Y9665970D01*
X12888468Y9542271D02*
G01*
X12879324Y9537954D01*
X12870434Y9528810D01*
X12865861Y9519665D01*
X12865861Y9501378D01*
X12870434Y9492487D01*
X12879324Y9483344D01*
X12888468Y9478771D01*
X12902184Y9474200D01*
X12924790Y9474200D01*
X12938506Y9478771D01*
X12947650Y9483344D01*
X12956793Y9492487D01*
X12961365Y9501378D01*
X12961365Y9519665D01*
X12956793Y9528810D01*
X12947650Y9537954D01*
X12938506Y9542271D01*
X12924790Y9542271D01*
X12924790Y9519665D02*
G01*
X12924790Y9542271D01*
X12865861Y9572497D02*
G01*
X12961365Y9572497D01*
X12865861Y9572497D02*
G01*
X12961365Y9635997D01*
X12865861Y9635997D02*
G01*
X12961365Y9635997D01*
X12865861Y9665970D02*
G01*
X12961365Y9665970D01*
X12865861Y9665970D02*
G01*
X12865861Y9697720D01*
X12870434Y9711436D01*
X12879324Y9720579D01*
X12888468Y9725152D01*
X12902184Y9729724D01*
X12924790Y9729724D01*
X12938506Y9725152D01*
X12947650Y9720579D01*
X12956793Y9711436D01*
X12961365Y9697720D01*
X12961365Y9665970D01*
X12634468Y9542271D02*
G01*
X12625324Y9537954D01*
X12616434Y9528810D01*
X12611861Y9519665D01*
X12611861Y9501378D01*
X12616434Y9492487D01*
X12625324Y9483344D01*
X12634468Y9478771D01*
X12648184Y9474200D01*
X12670790Y9474200D01*
X12684506Y9478771D01*
X12693650Y9483344D01*
X12702793Y9492487D01*
X12707365Y9501378D01*
X12707365Y9519665D01*
X12702793Y9528810D01*
X12693650Y9537954D01*
X12684506Y9542271D01*
X12670790Y9542271D01*
X12670790Y9519665D02*
G01*
X12670790Y9542271D01*
X12611861Y9572497D02*
G01*
X12707365Y9572497D01*
X12611861Y9572497D02*
G01*
X12707365Y9635997D01*
X12611861Y9635997D02*
G01*
X12707365Y9635997D01*
X12611861Y9665970D02*
G01*
X12707365Y9665970D01*
X12611861Y9665970D02*
G01*
X12611861Y9697720D01*
X12616434Y9711436D01*
X12625324Y9720579D01*
X12634468Y9725152D01*
X12648184Y9729724D01*
X12670790Y9729724D01*
X12684506Y9725152D01*
X12693650Y9720579D01*
X12702793Y9711436D01*
X12707365Y9697720D01*
X12707365Y9665970D01*
X12380468Y9542271D02*
G01*
X12371324Y9537954D01*
X12362434Y9528810D01*
X12357861Y9519665D01*
X12357861Y9501378D01*
X12362434Y9492487D01*
X12371324Y9483344D01*
X12380468Y9478771D01*
X12394184Y9474200D01*
X12416790Y9474200D01*
X12430506Y9478771D01*
X12439650Y9483344D01*
X12448793Y9492487D01*
X12453365Y9501378D01*
X12453365Y9519665D01*
X12448793Y9528810D01*
X12439650Y9537954D01*
X12430506Y9542271D01*
X12416790Y9542271D01*
X12416790Y9519665D02*
G01*
X12416790Y9542271D01*
X12357861Y9572497D02*
G01*
X12453365Y9572497D01*
X12357861Y9572497D02*
G01*
X12453365Y9635997D01*
X12357861Y9635997D02*
G01*
X12453365Y9635997D01*
X12357861Y9665970D02*
G01*
X12453365Y9665970D01*
X12357861Y9665970D02*
G01*
X12357861Y9697720D01*
X12362434Y9711436D01*
X12371324Y9720579D01*
X12380468Y9725152D01*
X12394184Y9729724D01*
X12416790Y9729724D01*
X12430506Y9725152D01*
X12439650Y9720579D01*
X12448793Y9711436D01*
X12453365Y9697720D01*
X12453365Y9665970D01*
D38*
X14617700Y2729737D02*
G01*
X14617700Y2634234D01*
X14617700Y2729737D02*
G01*
X14658593Y2729737D01*
X14672309Y2725165D01*
X14676881Y2720594D01*
X14681454Y2711704D01*
X14681454Y2702560D01*
X14676881Y2693415D01*
X14672309Y2688844D01*
X14658593Y2684271D01*
X14617700Y2684271D01*
X14649450Y2684271D02*
G01*
X14681454Y2634234D01*
X14711425Y2729737D02*
G01*
X14734031Y2634234D01*
X14756891Y2729737D02*
G01*
X14734031Y2634234D01*
X14756891Y2729737D02*
G01*
X14779497Y2634234D01*
X14802358Y2729737D02*
G01*
X14779497Y2634234D01*
X14832329Y2729737D02*
G01*
X14832329Y2634234D01*
X14832329Y2729737D02*
G01*
X14873224Y2729737D01*
X14886686Y2725165D01*
X14891258Y2720594D01*
X14895829Y2711704D01*
X14895829Y2702560D01*
X14891258Y2693415D01*
X14886686Y2688844D01*
X14873224Y2684271D01*
X14832329Y2684271D02*
G01*
X14873224Y2684271D01*
X14886686Y2679700D01*
X14891258Y2675381D01*
X14895829Y2666237D01*
X14895829Y2652521D01*
X14891258Y2643378D01*
X14886686Y2638805D01*
X14873224Y2634234D01*
X14832329Y2634234D01*
X13627100Y2729737D02*
G01*
X13627100Y2634234D01*
X13627100Y2729737D02*
G01*
X13667993Y2729737D01*
X13681709Y2725165D01*
X13686281Y2720594D01*
X13690854Y2711704D01*
X13690854Y2702560D01*
X13686281Y2693415D01*
X13681709Y2688844D01*
X13667993Y2684271D01*
X13627100Y2684271D01*
X13658850Y2684271D02*
G01*
X13690854Y2634234D01*
X13748004Y2729737D02*
G01*
X13738859Y2725165D01*
X13729716Y2716276D01*
X13725397Y2707131D01*
X13720825Y2693415D01*
X13720825Y2670810D01*
X13725397Y2657094D01*
X13729716Y2647950D01*
X13738859Y2638805D01*
X13748004Y2634234D01*
X13766291Y2634234D01*
X13775181Y2638805D01*
X13784325Y2647950D01*
X13788897Y2657094D01*
X13793470Y2670810D01*
X13793470Y2693415D01*
X13788897Y2707131D01*
X13784325Y2716276D01*
X13775181Y2725165D01*
X13766291Y2729737D01*
X13748004Y2729737D01*
X13823441Y2729737D02*
G01*
X13823441Y2634234D01*
X13823441Y2729737D02*
G01*
X13859763Y2634234D01*
X13896086Y2729737D02*
G01*
X13859763Y2634234D01*
X13896086Y2729737D02*
G01*
X13896086Y2634234D01*
X13926311Y2729737D02*
G01*
X13926311Y2634234D01*
X13926311Y2729737D02*
G01*
X13967206Y2729737D01*
X13980668Y2725165D01*
X13985240Y2720594D01*
X13989811Y2711704D01*
X13989811Y2702560D01*
X13985240Y2693415D01*
X13980668Y2688844D01*
X13967206Y2684271D01*
X13926311Y2684271D02*
G01*
X13967206Y2684271D01*
X13980668Y2679700D01*
X13985240Y2675381D01*
X13989811Y2666237D01*
X13989811Y2652521D01*
X13985240Y2643378D01*
X13980668Y2638805D01*
X13967206Y2634234D01*
X13926311Y2634234D01*
X13703300Y2475737D02*
G01*
X13703300Y2380234D01*
X13703300Y2475737D02*
G01*
X13767054Y2380234D01*
X13767054Y2475737D02*
G01*
X13767054Y2380234D01*
X13797025Y2475737D02*
G01*
X13797025Y2380234D01*
X13797025Y2475737D02*
G01*
X13833347Y2380234D01*
X13869670Y2475737D02*
G01*
X13833347Y2380234D01*
X13869670Y2475737D02*
G01*
X13869670Y2380234D01*
X13899641Y2475737D02*
G01*
X13899641Y2380234D01*
X13929613Y2475737D02*
G01*
X13929613Y2380234D01*
X13929613Y2475737D02*
G01*
X13970508Y2475737D01*
X13984224Y2471165D01*
X13988795Y2466594D01*
X13993368Y2457704D01*
X13993368Y2448560D01*
X13988795Y2439415D01*
X13984224Y2434844D01*
X13970508Y2430271D01*
X13929613Y2430271D02*
G01*
X13970508Y2430271D01*
X13984224Y2425700D01*
X13988795Y2421381D01*
X13993368Y2412237D01*
X13993368Y2398521D01*
X13988795Y2389378D01*
X13984224Y2384805D01*
X13970508Y2380234D01*
X13929613Y2380234D01*
X13822172Y2211831D02*
G01*
X13817854Y2220976D01*
X13808709Y2229865D01*
X13799566Y2234437D01*
X13781277Y2234437D01*
X13772388Y2229865D01*
X13763243Y2220976D01*
X13758672Y2211831D01*
X13754100Y2198115D01*
X13754100Y2175510D01*
X13758672Y2161794D01*
X13763243Y2152650D01*
X13772388Y2143505D01*
X13781277Y2138934D01*
X13799566Y2138934D01*
X13808709Y2143505D01*
X13817854Y2152650D01*
X13822172Y2161794D01*
X13852397Y2234437D02*
G01*
X13852397Y2138934D01*
X13852397Y2138934D02*
G01*
X13906754Y2138934D01*
X13936725Y2234437D02*
G01*
X13936725Y2138934D01*
X14000479Y2234437D02*
G01*
X13936725Y2170937D01*
X13959586Y2193544D02*
G01*
X14000479Y2138934D01*
X13809472Y1945131D02*
G01*
X13805154Y1954276D01*
X13796009Y1963165D01*
X13786866Y1967737D01*
X13768577Y1967737D01*
X13759688Y1963165D01*
X13750543Y1954276D01*
X13745972Y1945131D01*
X13741400Y1931415D01*
X13741400Y1908810D01*
X13745972Y1895094D01*
X13750543Y1885950D01*
X13759688Y1876805D01*
X13768577Y1872234D01*
X13786866Y1872234D01*
X13796009Y1876805D01*
X13805154Y1885950D01*
X13809472Y1895094D01*
X13809472Y1908810D01*
X13786866Y1908810D02*
G01*
X13809472Y1908810D01*
X13839697Y1967737D02*
G01*
X13839697Y1872234D01*
X13839697Y1967737D02*
G01*
X13903197Y1872234D01*
X13903197Y1967737D02*
G01*
X13903197Y1872234D01*
X13933170Y1967737D02*
G01*
X13933170Y1872234D01*
X13933170Y1967737D02*
G01*
X13964920Y1967737D01*
X13978636Y1963165D01*
X13987779Y1954276D01*
X13992352Y1945131D01*
X13996924Y1931415D01*
X13996924Y1908810D01*
X13992352Y1895094D01*
X13987779Y1885950D01*
X13978636Y1876805D01*
X13964920Y1872234D01*
X13933170Y1872234D01*
X11010900Y9829037D02*
G01*
X11047222Y9733534D01*
X11083543Y9829037D02*
G01*
X11047222Y9733534D01*
X11113515Y9829037D02*
G01*
X11113515Y9733534D01*
X11180063Y9829037D02*
G01*
X11143741Y9733534D01*
X11180063Y9829037D02*
G01*
X11216386Y9733534D01*
X11157204Y9765537D02*
G01*
X11202670Y9765537D01*
X11255502Y9829037D02*
G01*
X11305540Y9829037D01*
X11278108Y9792715D01*
X11291824Y9792715D01*
X11300968Y9788144D01*
X11305540Y9783571D01*
X11310111Y9770110D01*
X11310111Y9760965D01*
X11305540Y9747250D01*
X11296395Y9738105D01*
X11282679Y9733534D01*
X11268963Y9733534D01*
X11255502Y9738105D01*
X11250929Y9742678D01*
X11246358Y9751821D01*
X8255000Y9854437D02*
G01*
X8291322Y9758934D01*
X8327643Y9854437D02*
G01*
X8291322Y9758934D01*
X8357615Y9854437D02*
G01*
X8357615Y9758934D01*
X8424163Y9854437D02*
G01*
X8387841Y9758934D01*
X8424163Y9854437D02*
G01*
X8460486Y9758934D01*
X8401304Y9790937D02*
G01*
X8446770Y9790937D01*
X8495029Y9831831D02*
G01*
X8495029Y9836404D01*
X8499602Y9845294D01*
X8504174Y9849865D01*
X8513063Y9854437D01*
X8531352Y9854437D01*
X8540495Y9849865D01*
X8545068Y9845294D01*
X8549640Y9836404D01*
X8549640Y9827260D01*
X8545068Y9818115D01*
X8535924Y9804400D01*
X8490458Y9758934D01*
X8554211Y9758934D01*
X5537200Y9829037D02*
G01*
X5573522Y9733534D01*
X5609843Y9829037D02*
G01*
X5573522Y9733534D01*
X5639815Y9829037D02*
G01*
X5639815Y9733534D01*
X5706363Y9829037D02*
G01*
X5670041Y9733534D01*
X5706363Y9829037D02*
G01*
X5742686Y9733534D01*
X5683504Y9765537D02*
G01*
X5728970Y9765537D01*
X5772658Y9811004D02*
G01*
X5781802Y9815576D01*
X5795263Y9829037D01*
X5795263Y9733534D01*
X4208272Y9793731D02*
G01*
X4203954Y9802876D01*
X4194809Y9811765D01*
X4185665Y9816337D01*
X4167377Y9816337D01*
X4158488Y9811765D01*
X4149343Y9802876D01*
X4144772Y9793731D01*
X4140200Y9780015D01*
X4140200Y9757410D01*
X4144772Y9743694D01*
X4149343Y9734550D01*
X4158488Y9725405D01*
X4167377Y9720834D01*
X4185665Y9720834D01*
X4194809Y9725405D01*
X4203954Y9734550D01*
X4208272Y9743694D01*
X4274820Y9816337D02*
G01*
X4238497Y9720834D01*
X4274820Y9816337D02*
G01*
X4311141Y9720834D01*
X4251959Y9752837D02*
G01*
X4297425Y9752837D01*
X4208272Y9920731D02*
G01*
X4203954Y9929876D01*
X4194809Y9938765D01*
X4185665Y9943337D01*
X4167377Y9943337D01*
X4158488Y9938765D01*
X4149343Y9929876D01*
X4144772Y9920731D01*
X4140200Y9907015D01*
X4140200Y9884410D01*
X4144772Y9870694D01*
X4149343Y9861550D01*
X4158488Y9852405D01*
X4167377Y9847834D01*
X4185665Y9847834D01*
X4194809Y9852405D01*
X4203954Y9861550D01*
X4208272Y9870694D01*
X4238497Y9943337D02*
G01*
X4238497Y9847834D01*
X4238497Y9943337D02*
G01*
X4279391Y9943337D01*
X4292854Y9938765D01*
X4297425Y9934194D01*
X4301997Y9925304D01*
X4301997Y9916160D01*
X4297425Y9907015D01*
X4292854Y9902444D01*
X4279391Y9897871D01*
X4238497Y9897871D02*
G01*
X4279391Y9897871D01*
X4292854Y9893300D01*
X4297425Y9888981D01*
X4301997Y9879837D01*
X4301997Y9866121D01*
X4297425Y9856978D01*
X4292854Y9852405D01*
X4279391Y9847834D01*
X4238497Y9847834D01*
X6938769Y9793734D02*
G01*
X6934451Y9802878D01*
X6925307Y9811768D01*
X6916163Y9816340D01*
X6897875Y9816340D01*
X6888985Y9811768D01*
X6879841Y9802878D01*
X6875269Y9793734D01*
X6870697Y9780018D01*
X6870697Y9757412D01*
X6875269Y9743696D01*
X6879841Y9734552D01*
X6888985Y9725408D01*
X6897875Y9720836D01*
X6916163Y9720836D01*
X6925307Y9725408D01*
X6934451Y9734552D01*
X6938769Y9743696D01*
X7005317Y9816340D02*
G01*
X6968995Y9720836D01*
X7005317Y9816340D02*
G01*
X7041639Y9720836D01*
X6982457Y9752840D02*
G01*
X7027923Y9752840D01*
X6938769Y9920734D02*
G01*
X6934451Y9929878D01*
X6925307Y9938768D01*
X6916163Y9943340D01*
X6897875Y9943340D01*
X6888985Y9938768D01*
X6879841Y9929878D01*
X6875269Y9920734D01*
X6870697Y9907018D01*
X6870697Y9884412D01*
X6875269Y9870696D01*
X6879841Y9861552D01*
X6888985Y9852408D01*
X6897875Y9847836D01*
X6916163Y9847836D01*
X6925307Y9852408D01*
X6934451Y9861552D01*
X6938769Y9870696D01*
X6968995Y9943340D02*
G01*
X6968995Y9847836D01*
X6968995Y9943340D02*
G01*
X7009889Y9943340D01*
X7023351Y9938768D01*
X7027923Y9934196D01*
X7032495Y9925306D01*
X7032495Y9916162D01*
X7027923Y9907018D01*
X7023351Y9902446D01*
X7009889Y9897874D01*
X6968995Y9897874D02*
G01*
X7009889Y9897874D01*
X7023351Y9893302D01*
X7027923Y9888984D01*
X7032495Y9879840D01*
X7032495Y9866124D01*
X7027923Y9856980D01*
X7023351Y9852408D01*
X7009889Y9847836D01*
X6968995Y9847836D01*
X9631172Y9806431D02*
G01*
X9626854Y9815576D01*
X9617709Y9824465D01*
X9608565Y9829037D01*
X9590277Y9829037D01*
X9581388Y9824465D01*
X9572243Y9815576D01*
X9567672Y9806431D01*
X9563100Y9792715D01*
X9563100Y9770110D01*
X9567672Y9756394D01*
X9572243Y9747250D01*
X9581388Y9738105D01*
X9590277Y9733534D01*
X9608565Y9733534D01*
X9617709Y9738105D01*
X9626854Y9747250D01*
X9631172Y9756394D01*
X9697720Y9829037D02*
G01*
X9661397Y9733534D01*
X9697720Y9829037D02*
G01*
X9734041Y9733534D01*
X9674859Y9765537D02*
G01*
X9720325Y9765537D01*
X9618472Y9933431D02*
G01*
X9614154Y9942576D01*
X9605009Y9951465D01*
X9595865Y9956037D01*
X9577577Y9956037D01*
X9568688Y9951465D01*
X9559543Y9942576D01*
X9554972Y9933431D01*
X9550400Y9919715D01*
X9550400Y9897110D01*
X9554972Y9883394D01*
X9559543Y9874250D01*
X9568688Y9865105D01*
X9577577Y9860534D01*
X9595865Y9860534D01*
X9605009Y9865105D01*
X9614154Y9874250D01*
X9618472Y9883394D01*
X9648697Y9956037D02*
G01*
X9648697Y9860534D01*
X9648697Y9956037D02*
G01*
X9689591Y9956037D01*
X9703054Y9951465D01*
X9707625Y9946894D01*
X9712197Y9938004D01*
X9712197Y9928860D01*
X9707625Y9919715D01*
X9703054Y9915144D01*
X9689591Y9910571D01*
X9648697Y9910571D02*
G01*
X9689591Y9910571D01*
X9703054Y9906000D01*
X9707625Y9901681D01*
X9712197Y9892537D01*
X9712197Y9878821D01*
X9707625Y9869678D01*
X9703054Y9865105D01*
X9689591Y9860534D01*
X9648697Y9860534D01*
X10566400Y9816337D02*
G01*
X10566400Y9720834D01*
X10566400Y9816337D02*
G01*
X10607293Y9816337D01*
X10621009Y9811765D01*
X10625581Y9807194D01*
X10630154Y9798304D01*
X10630154Y9784587D01*
X10625581Y9775444D01*
X10621009Y9770871D01*
X10607293Y9766300D01*
X10566400Y9766300D01*
X10696447Y9816337D02*
G01*
X10660125Y9720834D01*
X10696447Y9816337D02*
G01*
X10732770Y9720834D01*
X10673588Y9752837D02*
G01*
X10719054Y9752837D01*
X10566400Y9956037D02*
G01*
X10566400Y9860534D01*
X10566400Y9956037D02*
G01*
X10607293Y9956037D01*
X10621009Y9951465D01*
X10625581Y9946894D01*
X10630154Y9938004D01*
X10630154Y9924287D01*
X10625581Y9915144D01*
X10621009Y9910571D01*
X10607293Y9906000D01*
X10566400Y9906000D01*
X10660125Y9956037D02*
G01*
X10660125Y9860534D01*
X10660125Y9956037D02*
G01*
X10701020Y9956037D01*
X10714481Y9951465D01*
X10719054Y9946894D01*
X10723625Y9938004D01*
X10723625Y9928860D01*
X10719054Y9919715D01*
X10714481Y9915144D01*
X10701020Y9910571D01*
X10660125Y9910571D02*
G01*
X10701020Y9910571D01*
X10714481Y9906000D01*
X10719054Y9901681D01*
X10723625Y9892537D01*
X10723625Y9878821D01*
X10719054Y9869678D01*
X10714481Y9865105D01*
X10701020Y9860534D01*
X10660125Y9860534D01*
X14617700Y2221737D02*
G01*
X14617700Y2126234D01*
X14617700Y2221737D02*
G01*
X14658593Y2221737D01*
X14672309Y2217165D01*
X14676881Y2212594D01*
X14681454Y2203704D01*
X14681454Y2194560D01*
X14676881Y2185415D01*
X14672309Y2180844D01*
X14658593Y2176271D01*
X14617700Y2176271D01*
X14649450Y2176271D02*
G01*
X14681454Y2126234D01*
X14711425Y2221737D02*
G01*
X14711425Y2126234D01*
X14711425Y2221737D02*
G01*
X14770354Y2221737D01*
X14711425Y2176271D02*
G01*
X14747747Y2176271D01*
X14711425Y2126234D02*
G01*
X14770354Y2126234D01*
X14864079Y2208276D02*
G01*
X14854936Y2217165D01*
X14841220Y2221737D01*
X14823186Y2221737D01*
X14809470Y2217165D01*
X14800325Y2208276D01*
X14800325Y2199131D01*
X14804897Y2189987D01*
X14809470Y2185415D01*
X14818613Y2180844D01*
X14845791Y2171700D01*
X14854936Y2167381D01*
X14859508Y2162810D01*
X14864079Y2153665D01*
X14864079Y2139950D01*
X14854936Y2130805D01*
X14841220Y2126234D01*
X14823186Y2126234D01*
X14809470Y2130805D01*
X14800325Y2139950D01*
X14894052Y2221737D02*
G01*
X14894052Y2126234D01*
X14894052Y2221737D02*
G01*
X14934945Y2221737D01*
X14948661Y2217165D01*
X14953234Y2212594D01*
X14957806Y2203704D01*
X14957806Y2194560D01*
X14953234Y2185415D01*
X14948661Y2180844D01*
X14934945Y2176271D01*
X14894052Y2176271D02*
G01*
X14934945Y2176271D01*
X14948661Y2171700D01*
X14953234Y2167381D01*
X14957806Y2158237D01*
X14957806Y2144521D01*
X14953234Y2135378D01*
X14948661Y2130805D01*
X14934945Y2126234D01*
X14894052Y2126234D01*
X14617700Y2475737D02*
G01*
X14617700Y2380234D01*
X14647672Y2475737D02*
G01*
X14647672Y2380234D01*
X14647672Y2475737D02*
G01*
X14688566Y2475737D01*
X14702281Y2471165D01*
X14706854Y2466594D01*
X14711425Y2457704D01*
X14711425Y2448560D01*
X14706854Y2439415D01*
X14702281Y2434844D01*
X14688566Y2430271D01*
X14647672Y2430271D01*
X14679422Y2430271D02*
G01*
X14711425Y2380234D01*
X14768575Y2475737D02*
G01*
X14759431Y2471165D01*
X14750541Y2462276D01*
X14745970Y2453131D01*
X14741397Y2439415D01*
X14741397Y2416810D01*
X14745970Y2403094D01*
X14750541Y2393950D01*
X14759431Y2384805D01*
X14768575Y2380234D01*
X14786863Y2380234D01*
X14796008Y2384805D01*
X14804897Y2393950D01*
X14809470Y2403094D01*
X14814041Y2416810D01*
X14814041Y2439415D01*
X14809470Y2453131D01*
X14804897Y2462276D01*
X14796008Y2471165D01*
X14786863Y2475737D01*
X14768575Y2475737D01*
X14782291Y2398521D02*
G01*
X14809470Y2371344D01*
X14844013Y2475737D02*
G01*
X14844013Y2380234D01*
X14844013Y2475737D02*
G01*
X14884908Y2475737D01*
X14898624Y2471165D01*
X14903195Y2466594D01*
X14907768Y2457704D01*
X14907768Y2448560D01*
X14903195Y2439415D01*
X14898624Y2434844D01*
X14884908Y2430271D01*
X14844013Y2430271D02*
G01*
X14884908Y2430271D01*
X14898624Y2425700D01*
X14903195Y2421381D01*
X14907768Y2412237D01*
X14907768Y2398521D01*
X14903195Y2389378D01*
X14898624Y2384805D01*
X14884908Y2380234D01*
X14844013Y2380234D01*
X14617700Y1967737D02*
G01*
X14654022Y1872234D01*
X14690343Y1967737D02*
G01*
X14654022Y1872234D01*
X14788641Y1945131D02*
G01*
X14784070Y1954276D01*
X14774925Y1963165D01*
X14765781Y1967737D01*
X14747747Y1967737D01*
X14738604Y1963165D01*
X14729459Y1954276D01*
X14724888Y1945131D01*
X14720316Y1931415D01*
X14720316Y1908810D01*
X14724888Y1895094D01*
X14729459Y1885950D01*
X14738604Y1876805D01*
X14747747Y1872234D01*
X14765781Y1872234D01*
X14774925Y1876805D01*
X14784070Y1885950D01*
X14788641Y1895094D01*
X14886686Y1945131D02*
G01*
X14882368Y1954276D01*
X14873224Y1963165D01*
X14864079Y1967737D01*
X14845791Y1967737D01*
X14836902Y1963165D01*
X14827758Y1954276D01*
X14823186Y1945131D01*
X14818613Y1931415D01*
X14818613Y1908810D01*
X14823186Y1895094D01*
X14827758Y1885950D01*
X14836902Y1876805D01*
X14845791Y1872234D01*
X14864079Y1872234D01*
X14873224Y1876805D01*
X14882368Y1885950D01*
X14886686Y1895094D01*
D42*
X13246100Y2221737D02*
G01*
X13309854Y2126234D01*
X13309854Y2221737D02*
G01*
X13246100Y2126234D01*
X13339825Y2221737D02*
G01*
X13339825Y2126234D01*
X13369797Y2221737D02*
G01*
X13369797Y2126234D01*
X13369797Y2221737D02*
G01*
X13410691Y2221737D01*
X13424408Y2217165D01*
X13428725Y2212594D01*
X13433297Y2203704D01*
X13433297Y2194560D01*
X13428725Y2185415D01*
X13424408Y2180844D01*
X13410691Y2176271D01*
X13369797Y2176271D01*
X13401547Y2176271D02*
G01*
X13433297Y2126234D01*
X13490702Y2221737D02*
G01*
X13481558Y2217165D01*
X13472413Y2208276D01*
X13467841Y2199131D01*
X13463270Y2185415D01*
X13463270Y2162810D01*
X13467841Y2149094D01*
X13472413Y2139950D01*
X13481558Y2130805D01*
X13490702Y2126234D01*
X13508736Y2126234D01*
X13517879Y2130805D01*
X13527024Y2139950D01*
X13531595Y2149094D01*
X13536168Y2162810D01*
X13536168Y2185415D01*
X13531595Y2199131D01*
X13527024Y2208276D01*
X13517879Y2217165D01*
X13508736Y2221737D01*
X13490702Y2221737D01*
X13504163Y2144521D02*
G01*
X13531595Y2117344D01*
X13246100Y1967737D02*
G01*
X13282422Y1872234D01*
X13318743Y1967737D02*
G01*
X13282422Y1872234D01*
X13417041Y1945131D02*
G01*
X13412470Y1954276D01*
X13403325Y1963165D01*
X13394181Y1967737D01*
X13376147Y1967737D01*
X13367004Y1963165D01*
X13357859Y1954276D01*
X13353288Y1945131D01*
X13348716Y1931415D01*
X13348716Y1908810D01*
X13353288Y1895094D01*
X13357859Y1885950D01*
X13367004Y1876805D01*
X13376147Y1872234D01*
X13394181Y1872234D01*
X13403325Y1876805D01*
X13412470Y1885950D01*
X13417041Y1895094D01*
X13515086Y1945131D02*
G01*
X13510768Y1954276D01*
X13501624Y1963165D01*
X13492479Y1967737D01*
X13474191Y1967737D01*
X13465302Y1963165D01*
X13456158Y1954276D01*
X13451586Y1945131D01*
X13447013Y1931415D01*
X13447013Y1908810D01*
X13451586Y1895094D01*
X13456158Y1885950D01*
X13465302Y1876805D01*
X13474191Y1872234D01*
X13492479Y1872234D01*
X13501624Y1876805D01*
X13510768Y1885950D01*
X13515086Y1895094D01*
X2782824Y9779254D02*
G01*
X2773934Y9770110D01*
X2769361Y9756394D01*
X2769361Y9738105D01*
X2773934Y9724644D01*
X2782824Y9715500D01*
X2791968Y9715500D01*
X2801111Y9720071D01*
X2805684Y9724644D01*
X2810256Y9733787D01*
X2819400Y9760965D01*
X2823718Y9770110D01*
X2828290Y9774681D01*
X2837434Y9779254D01*
X2851150Y9779254D01*
X2860293Y9770110D01*
X2864865Y9756394D01*
X2864865Y9738105D01*
X2860293Y9724644D01*
X2851150Y9715500D01*
X2769361Y9809226D02*
G01*
X2864865Y9809226D01*
X2769361Y9809226D02*
G01*
X2769361Y9850120D01*
X2773934Y9863581D01*
X2778506Y9868154D01*
X2787395Y9872726D01*
X2801111Y9872726D01*
X2810256Y9868154D01*
X2814827Y9863581D01*
X2819400Y9850120D01*
X2819400Y9809226D01*
X2769361Y9902697D02*
G01*
X2864865Y9902697D01*
X2769361Y9966452D02*
G01*
X2832861Y9902697D01*
X2810256Y9925558D02*
G01*
X2864865Y9966452D01*
X3058668Y9783571D02*
G01*
X3049524Y9779254D01*
X3040634Y9770110D01*
X3036061Y9760965D01*
X3036061Y9742678D01*
X3040634Y9733787D01*
X3049524Y9724644D01*
X3058668Y9720071D01*
X3072384Y9715500D01*
X3094990Y9715500D01*
X3108706Y9720071D01*
X3117850Y9724644D01*
X3126993Y9733787D01*
X3131565Y9742678D01*
X3131565Y9760965D01*
X3126993Y9770110D01*
X3117850Y9779254D01*
X3108706Y9783571D01*
X3094990Y9783571D01*
X3094990Y9760965D02*
G01*
X3094990Y9783571D01*
X3036061Y9813797D02*
G01*
X3131565Y9813797D01*
X3036061Y9813797D02*
G01*
X3131565Y9877297D01*
X3036061Y9877297D02*
G01*
X3131565Y9877297D01*
X3036061Y9907270D02*
G01*
X3131565Y9907270D01*
X3036061Y9907270D02*
G01*
X3036061Y9939020D01*
X3040634Y9952736D01*
X3049524Y9961879D01*
X3058668Y9966452D01*
X3072384Y9971024D01*
X3094990Y9971024D01*
X3108706Y9966452D01*
X3117850Y9961879D01*
X3126993Y9952736D01*
X3131565Y9939020D01*
X3131565Y9907270D01*
X14673072Y941831D02*
G01*
X14668754Y950976D01*
X14659609Y959865D01*
X14650466Y964437D01*
X14632177Y964437D01*
X14623288Y959865D01*
X14614143Y950976D01*
X14609572Y941831D01*
X14605000Y928115D01*
X14605000Y905510D01*
X14609572Y891794D01*
X14614143Y882650D01*
X14623288Y873505D01*
X14632177Y868934D01*
X14650466Y868934D01*
X14659609Y873505D01*
X14668754Y882650D01*
X14673072Y891794D01*
X14673072Y905510D01*
X14650466Y905510D02*
G01*
X14673072Y905510D01*
X14703297Y964437D02*
G01*
X14703297Y868934D01*
X14703297Y964437D02*
G01*
X14766797Y868934D01*
X14766797Y964437D02*
G01*
X14766797Y868934D01*
X14796770Y964437D02*
G01*
X14796770Y868934D01*
X14796770Y964437D02*
G01*
X14828520Y964437D01*
X14842236Y959865D01*
X14851379Y950976D01*
X14855952Y941831D01*
X14860524Y928115D01*
X14860524Y905510D01*
X14855952Y891794D01*
X14851379Y882650D01*
X14842236Y873505D01*
X14828520Y868934D01*
X14796770Y868934D01*
X14605000Y1218437D02*
G01*
X14641322Y1122934D01*
X14677643Y1218437D02*
G01*
X14641322Y1122934D01*
X14775941Y1195831D02*
G01*
X14771370Y1204976D01*
X14762225Y1213865D01*
X14753081Y1218437D01*
X14735047Y1218437D01*
X14725904Y1213865D01*
X14716759Y1204976D01*
X14712188Y1195831D01*
X14707616Y1182115D01*
X14707616Y1159510D01*
X14712188Y1145794D01*
X14716759Y1136650D01*
X14725904Y1127505D01*
X14735047Y1122934D01*
X14753081Y1122934D01*
X14762225Y1127505D01*
X14771370Y1136650D01*
X14775941Y1145794D01*
X14873986Y1195831D02*
G01*
X14869668Y1204976D01*
X14860524Y1213865D01*
X14851379Y1218437D01*
X14833091Y1218437D01*
X14824202Y1213865D01*
X14815058Y1204976D01*
X14810486Y1195831D01*
X14805913Y1182115D01*
X14805913Y1159510D01*
X14810486Y1145794D01*
X14815058Y1136650D01*
X14824202Y1127505D01*
X14833091Y1122934D01*
X14851379Y1122934D01*
X14860524Y1127505D01*
X14869668Y1136650D01*
X14873986Y1145794D01*
D38*
X4774438Y9764521D02*
G01*
X4769865Y9777984D01*
X4756404Y9787128D01*
X4733543Y9791700D01*
X4720081Y9791700D01*
X4697222Y9787128D01*
X4683506Y9777984D01*
X4678934Y9764521D01*
X4678934Y9755378D01*
X4683506Y9741662D01*
X4697222Y9732518D01*
X4720081Y9727945D01*
X4733543Y9727945D01*
X4756404Y9732518D01*
X4769865Y9741662D01*
X4774438Y9755378D01*
X4774438Y9764521D01*
X6528561Y9791954D02*
G01*
X6624065Y9746487D01*
X6528561Y9728200D02*
G01*
X6528561Y9791954D01*
X5080000Y9943337D02*
G01*
X5080000Y9847834D01*
X5080000Y9943337D02*
G01*
X5120893Y9943337D01*
X5134609Y9938765D01*
X5139181Y9934194D01*
X5143754Y9925304D01*
X5143754Y9911587D01*
X5139181Y9902444D01*
X5134609Y9897871D01*
X5120893Y9893300D01*
X5080000Y9893300D01*
X5173725Y9943337D02*
G01*
X5173725Y9847834D01*
X5173725Y9943337D02*
G01*
X5214620Y9943337D01*
X5228081Y9938765D01*
X5232654Y9934194D01*
X5237225Y9925304D01*
X5237225Y9916160D01*
X5232654Y9907015D01*
X5228081Y9902444D01*
X5214620Y9897871D01*
X5173725Y9897871D02*
G01*
X5214620Y9897871D01*
X5228081Y9893300D01*
X5232654Y9888981D01*
X5237225Y9879837D01*
X5237225Y9866121D01*
X5232654Y9856978D01*
X5228081Y9852405D01*
X5214620Y9847834D01*
X5173725Y9847834D01*
X5080000Y9816337D02*
G01*
X5080000Y9720834D01*
X5080000Y9816337D02*
G01*
X5120893Y9816337D01*
X5134609Y9811765D01*
X5139181Y9807194D01*
X5143754Y9798304D01*
X5143754Y9784587D01*
X5139181Y9775444D01*
X5134609Y9770871D01*
X5120893Y9766300D01*
X5080000Y9766300D01*
X5210047Y9816337D02*
G01*
X5173725Y9720834D01*
X5210047Y9816337D02*
G01*
X5246370Y9720834D01*
X5187188Y9752837D02*
G01*
X5232654Y9752837D01*
X7823200Y9943337D02*
G01*
X7823200Y9847834D01*
X7823200Y9943337D02*
G01*
X7864093Y9943337D01*
X7877809Y9938765D01*
X7882381Y9934194D01*
X7886954Y9925304D01*
X7886954Y9911587D01*
X7882381Y9902444D01*
X7877809Y9897871D01*
X7864093Y9893300D01*
X7823200Y9893300D01*
X7916925Y9943337D02*
G01*
X7916925Y9847834D01*
X7916925Y9943337D02*
G01*
X7957820Y9943337D01*
X7971281Y9938765D01*
X7975854Y9934194D01*
X7980425Y9925304D01*
X7980425Y9916160D01*
X7975854Y9907015D01*
X7971281Y9902444D01*
X7957820Y9897871D01*
X7916925Y9897871D02*
G01*
X7957820Y9897871D01*
X7971281Y9893300D01*
X7975854Y9888981D01*
X7980425Y9879837D01*
X7980425Y9866121D01*
X7975854Y9856978D01*
X7971281Y9852405D01*
X7957820Y9847834D01*
X7916925Y9847834D01*
X7823200Y9816337D02*
G01*
X7823200Y9720834D01*
X7823200Y9816337D02*
G01*
X7864093Y9816337D01*
X7877809Y9811765D01*
X7882381Y9807194D01*
X7886954Y9798304D01*
X7886954Y9784587D01*
X7882381Y9775444D01*
X7877809Y9770871D01*
X7864093Y9766300D01*
X7823200Y9766300D01*
X7953247Y9816337D02*
G01*
X7916925Y9720834D01*
X7953247Y9816337D02*
G01*
X7989570Y9720834D01*
X7930388Y9752837D02*
G01*
X7975854Y9752837D01*
X7481061Y9755378D02*
G01*
X7485634Y9741915D01*
X7499095Y9732771D01*
X7521956Y9728200D01*
X7535418Y9728200D01*
X7558277Y9732771D01*
X7571993Y9741915D01*
X7576565Y9755378D01*
X7576565Y9764521D01*
X7571993Y9778237D01*
X7558277Y9787381D01*
X7535418Y9791954D01*
X7521956Y9791954D01*
X7499095Y9787381D01*
X7485634Y9778237D01*
X7481061Y9764521D01*
X7481061Y9755378D01*
X10224261Y9755378D02*
G01*
X10228834Y9741915D01*
X10242295Y9732771D01*
X10265156Y9728200D01*
X10278618Y9728200D01*
X10301477Y9732771D01*
X10315193Y9741915D01*
X10319765Y9755378D01*
X10319765Y9764521D01*
X10315193Y9778237D01*
X10301477Y9787381D01*
X10278618Y9791954D01*
X10265156Y9791954D01*
X10242295Y9787381D01*
X10228834Y9778237D01*
X10224261Y9764521D01*
X10224261Y9755378D01*
X9259061Y9804654D02*
G01*
X9354565Y9759187D01*
X9259061Y9740900D02*
G01*
X9259061Y9804654D01*
X12002261Y9791954D02*
G01*
X12097765Y9746487D01*
X12002261Y9728200D02*
G01*
X12002261Y9791954D01*
D42*
X3492500Y9917937D02*
G01*
X3492500Y9849865D01*
X3497072Y9836150D01*
X3506215Y9827005D01*
X3519677Y9822434D01*
X3528822Y9822434D01*
X3542538Y9827005D01*
X3551681Y9836150D01*
X3556254Y9849865D01*
X3556254Y9917937D01*
X3649725Y9904476D02*
G01*
X3640581Y9913365D01*
X3627120Y9917937D01*
X3608831Y9917937D01*
X3595115Y9913365D01*
X3586225Y9904476D01*
X3586225Y9895331D01*
X3590797Y9886187D01*
X3595115Y9881615D01*
X3604259Y9877044D01*
X3631691Y9867900D01*
X3640581Y9863581D01*
X3645154Y9859010D01*
X3649725Y9849865D01*
X3649725Y9836150D01*
X3640581Y9827005D01*
X3627120Y9822434D01*
X3608831Y9822434D01*
X3595115Y9827005D01*
X3586225Y9836150D01*
X3679697Y9917937D02*
G01*
X3679697Y9822434D01*
X3679697Y9917937D02*
G01*
X3738879Y9917937D01*
X3679697Y9872471D02*
G01*
X3716020Y9872471D01*
X3679697Y9822434D02*
G01*
X3738879Y9822434D01*
X3768852Y9917937D02*
G01*
X3768852Y9822434D01*
X3768852Y9917937D02*
G01*
X3809745Y9917937D01*
X3823461Y9913365D01*
X3828034Y9908794D01*
X3832606Y9899904D01*
X3832606Y9890760D01*
X3828034Y9881615D01*
X3823461Y9877044D01*
X3809745Y9872471D01*
X3768852Y9872471D01*
X3800602Y9872471D02*
G01*
X3832606Y9822434D01*
D38*
X6636765Y2320797D02*
G01*
X6627875Y2339086D01*
X6600443Y2348229D01*
X6582409Y2348229D01*
X6554977Y2339086D01*
X6536943Y2311654D01*
X6527800Y2266187D01*
X6527800Y2220721D01*
X6536943Y2184400D01*
X6554977Y2166365D01*
X6582409Y2157221D01*
X6591554Y2157221D01*
X6618731Y2166365D01*
X6636765Y2184400D01*
X6645909Y2211831D01*
X6645909Y2220721D01*
X6636765Y2248154D01*
X6618731Y2266187D01*
X6591554Y2275331D01*
X6582409Y2275331D01*
X6554977Y2266187D01*
X6536943Y2248154D01*
X6527800Y2220721D01*
X6815074Y2348229D02*
G01*
X6724141Y2348229D01*
X6714997Y2266187D01*
X6724141Y2275331D01*
X6751320Y2284476D01*
X6778752Y2284476D01*
X6805929Y2275331D01*
X6824218Y2257297D01*
X6833361Y2229865D01*
X6833361Y2211831D01*
X6824218Y2184400D01*
X6805929Y2166365D01*
X6778752Y2157221D01*
X6751320Y2157221D01*
X6724141Y2166365D01*
X6714997Y2175510D01*
X6706108Y2193544D01*
X6947915Y2348229D02*
G01*
X6920484Y2339086D01*
X6902450Y2311654D01*
X6893306Y2266187D01*
X6893306Y2239010D01*
X6902450Y2193544D01*
X6920484Y2166365D01*
X6947915Y2157221D01*
X6965950Y2157221D01*
X6993127Y2166365D01*
X7011415Y2193544D01*
X7020559Y2239010D01*
X7020559Y2266187D01*
X7011415Y2311654D01*
X6993127Y2339086D01*
X6965950Y2348229D01*
X6947915Y2348229D01*
X7089647Y2302763D02*
G01*
X7089647Y2311654D01*
X7098791Y2329942D01*
X7107681Y2339086D01*
X7125970Y2348229D01*
X7162291Y2348229D01*
X7180579Y2339086D01*
X7189724Y2329942D01*
X7198613Y2311654D01*
X7198613Y2293620D01*
X7189724Y2275331D01*
X7171436Y2248154D01*
X7080504Y2157221D01*
X7207758Y2157221D01*
X7544054Y2302763D02*
G01*
X7535163Y2320797D01*
X7516875Y2339086D01*
X7498588Y2348229D01*
X7462265Y2348229D01*
X7444231Y2339086D01*
X7425943Y2320797D01*
X7416800Y2302763D01*
X7407909Y2275331D01*
X7407909Y2229865D01*
X7416800Y2202687D01*
X7425943Y2184400D01*
X7444231Y2166365D01*
X7462265Y2157221D01*
X7498588Y2157221D01*
X7516875Y2166365D01*
X7535163Y2184400D01*
X7544054Y2202687D01*
X7649718Y2284476D02*
G01*
X7631429Y2275331D01*
X7613141Y2257297D01*
X7604252Y2229865D01*
X7604252Y2211831D01*
X7613141Y2184400D01*
X7631429Y2166365D01*
X7649718Y2157221D01*
X7676895Y2157221D01*
X7695184Y2166365D01*
X7713218Y2184400D01*
X7722361Y2211831D01*
X7722361Y2229865D01*
X7713218Y2257297D01*
X7695184Y2275331D01*
X7676895Y2284476D01*
X7649718Y2284476D01*
X7782306Y2284476D02*
G01*
X7782306Y2157221D01*
X7782306Y2248154D02*
G01*
X7809738Y2275331D01*
X7827772Y2284476D01*
X7854950Y2284476D01*
X7873238Y2275331D01*
X7882381Y2248154D01*
X7882381Y2157221D01*
X7882381Y2248154D02*
G01*
X7909559Y2275331D01*
X7927847Y2284476D01*
X7955025Y2284476D01*
X7973313Y2275331D01*
X7982458Y2248154D01*
X7982458Y2157221D01*
X8042402Y2284476D02*
G01*
X8042402Y2093468D01*
X8042402Y2257297D02*
G01*
X8060436Y2275331D01*
X8078724Y2284476D01*
X8105902Y2284476D01*
X8124190Y2275331D01*
X8142224Y2257297D01*
X8151368Y2229865D01*
X8151368Y2211831D01*
X8142224Y2184400D01*
X8124190Y2166365D01*
X8105902Y2157221D01*
X8078724Y2157221D01*
X8060436Y2166365D01*
X8042402Y2184400D01*
X8211311Y2284476D02*
G01*
X8211311Y2193544D01*
X8220456Y2166365D01*
X8238743Y2157221D01*
X8265922Y2157221D01*
X8284209Y2166365D01*
X8311388Y2193544D01*
X8311388Y2284476D02*
G01*
X8311388Y2157221D01*
X8398763Y2348229D02*
G01*
X8398763Y2193544D01*
X8407908Y2166365D01*
X8425941Y2157221D01*
X8444229Y2157221D01*
X8371331Y2284476D02*
G01*
X8435086Y2284476D01*
X8504174Y2229865D02*
G01*
X8613140Y2229865D01*
X8613140Y2248154D01*
X8604250Y2266187D01*
X8595106Y2275331D01*
X8576818Y2284476D01*
X8549640Y2284476D01*
X8531352Y2275331D01*
X8513318Y2257297D01*
X8504174Y2229865D01*
X8504174Y2211831D01*
X8513318Y2184400D01*
X8531352Y2166365D01*
X8549640Y2157221D01*
X8576818Y2157221D01*
X8595106Y2166365D01*
X8613140Y2184400D01*
X8673338Y2284476D02*
G01*
X8673338Y2157221D01*
X8673338Y2229865D02*
G01*
X8682227Y2257297D01*
X8700515Y2275331D01*
X8718804Y2284476D01*
X8745981Y2284476D01*
X6527800Y1840484D02*
G01*
X6527800Y1697228D01*
X6527800Y1840484D02*
G01*
X6589268Y1840484D01*
X6609588Y1833626D01*
X6616445Y1826768D01*
X6623304Y1813305D01*
X6623304Y1799589D01*
X6616445Y1785873D01*
X6609588Y1779015D01*
X6589268Y1772157D01*
X6527800Y1772157D01*
X6575552Y1772157D02*
G01*
X6623304Y1697228D01*
X6668261Y1751837D02*
G01*
X6750050Y1751837D01*
X6750050Y1765554D01*
X6743191Y1779015D01*
X6736334Y1785873D01*
X6722872Y1792731D01*
X6702297Y1792731D01*
X6688581Y1785873D01*
X6675120Y1772157D01*
X6668261Y1751837D01*
X6668261Y1738121D01*
X6675120Y1717802D01*
X6688581Y1704086D01*
X6702297Y1697228D01*
X6722872Y1697228D01*
X6736334Y1704086D01*
X6750050Y1717802D01*
X6795008Y1792731D02*
G01*
X6835902Y1697228D01*
X6876795Y1792731D02*
G01*
X6835902Y1697228D01*
X7033768Y1806447D02*
G01*
X7033768Y1813305D01*
X7040625Y1826768D01*
X7047229Y1833626D01*
X7060945Y1840484D01*
X7088377Y1840484D01*
X7101840Y1833626D01*
X7108697Y1826768D01*
X7115556Y1813305D01*
X7115556Y1799589D01*
X7108697Y1785873D01*
X7094981Y1765554D01*
X7026909Y1697228D01*
X7122413Y1697228D01*
X7174229Y1731263D02*
G01*
X7167372Y1724660D01*
X7174229Y1717802D01*
X7181088Y1724660D01*
X7174229Y1731263D01*
X7307834Y1819910D02*
G01*
X7300975Y1833626D01*
X7280402Y1840484D01*
X7266940Y1840484D01*
X7246365Y1833626D01*
X7232904Y1813305D01*
X7226045Y1779015D01*
X7226045Y1744979D01*
X7232904Y1717802D01*
X7246365Y1704086D01*
X7266940Y1697228D01*
X7273797Y1697228D01*
X7294118Y1704086D01*
X7307834Y1717802D01*
X7314691Y1738121D01*
X7314691Y1744979D01*
X7307834Y1765554D01*
X7294118Y1779015D01*
X7273797Y1785873D01*
X7266940Y1785873D01*
X7246365Y1779015D01*
X7232904Y1765554D01*
X7226045Y1744979D01*
X7366508Y1731263D02*
G01*
X7359650Y1724660D01*
X7366508Y1717802D01*
X7373365Y1724660D01*
X7366508Y1731263D01*
X7418324Y1813305D02*
G01*
X7431786Y1819910D01*
X7452359Y1840484D01*
X7452359Y1697228D01*
X6609588Y2034031D02*
G01*
X6609588Y1925065D01*
X6602729Y1904492D01*
X6595872Y1897634D01*
X6582409Y1890776D01*
X6561836Y1890776D01*
X6548374Y1897634D01*
X6609588Y2013457D02*
G01*
X6595872Y2027173D01*
X6582409Y2034031D01*
X6561836Y2034031D01*
X6548374Y2027173D01*
X6534658Y2013457D01*
X6527800Y1993137D01*
X6527800Y1979421D01*
X6534658Y1959102D01*
X6548374Y1945386D01*
X6561836Y1938528D01*
X6582409Y1938528D01*
X6595872Y1945386D01*
X6609588Y1959102D01*
X6654545Y2081784D02*
G01*
X6661404Y2074926D01*
X6668261Y2081784D01*
X6661404Y2088642D01*
X6654545Y2081784D01*
X6661404Y2034031D02*
G01*
X6661404Y1938528D01*
X6733793Y2081784D02*
G01*
X6733793Y1965960D01*
X6740652Y1945386D01*
X6754113Y1938528D01*
X6767829Y1938528D01*
X6713220Y2034031D02*
G01*
X6760972Y2034031D01*
X6812788Y2081784D02*
G01*
X6812788Y1938528D01*
X6812788Y2006854D02*
G01*
X6833361Y2027173D01*
X6846824Y2034031D01*
X6867397Y2034031D01*
X6880859Y2027173D01*
X6887718Y2006854D01*
X6887718Y1938528D01*
X6932675Y2034031D02*
G01*
X6932675Y1965960D01*
X6939534Y1945386D01*
X6953250Y1938528D01*
X6973824Y1938528D01*
X6987286Y1945386D01*
X7007859Y1965960D01*
X7007859Y2034031D02*
G01*
X7007859Y1938528D01*
X7052818Y2081784D02*
G01*
X7052818Y1938528D01*
X7052818Y2013457D02*
G01*
X7066534Y2027173D01*
X7079995Y2034031D01*
X7100570Y2034031D01*
X7114286Y2027173D01*
X7127747Y2013457D01*
X7134606Y1993137D01*
X7134606Y1979421D01*
X7127747Y1959102D01*
X7114286Y1945386D01*
X7100570Y1938528D01*
X7079995Y1938528D01*
X7066534Y1945386D01*
X7052818Y1959102D01*
X7186422Y1972563D02*
G01*
X7179563Y1965960D01*
X7186422Y1959102D01*
X7193279Y1965960D01*
X7186422Y1972563D01*
X7320025Y2013457D02*
G01*
X7306309Y2027173D01*
X7292847Y2034031D01*
X7272274Y2034031D01*
X7258811Y2027173D01*
X7245095Y2013457D01*
X7238238Y1993137D01*
X7238238Y1979421D01*
X7245095Y1959102D01*
X7258811Y1945386D01*
X7272274Y1938528D01*
X7292847Y1938528D01*
X7306309Y1945386D01*
X7320025Y1959102D01*
X7399274Y2034031D02*
G01*
X7385558Y2027173D01*
X7371841Y2013457D01*
X7364984Y1993137D01*
X7364984Y1979421D01*
X7371841Y1959102D01*
X7385558Y1945386D01*
X7399274Y1938528D01*
X7419593Y1938528D01*
X7433309Y1945386D01*
X7446772Y1959102D01*
X7453629Y1979421D01*
X7453629Y1993137D01*
X7446772Y2013457D01*
X7433309Y2027173D01*
X7419593Y2034031D01*
X7399274Y2034031D01*
X7498588Y2034031D02*
G01*
X7498588Y1938528D01*
X7498588Y2006854D02*
G01*
X7519161Y2027173D01*
X7532877Y2034031D01*
X7553197Y2034031D01*
X7566913Y2027173D01*
X7573772Y2006854D01*
X7573772Y1938528D01*
X7573772Y2006854D02*
G01*
X7594091Y2027173D01*
X7607808Y2034031D01*
X7628127Y2034031D01*
X7641843Y2027173D01*
X7648702Y2006854D01*
X7648702Y1938528D01*
X7816341Y2108962D02*
G01*
X7693659Y1890776D01*
X7888731Y2081784D02*
G01*
X7895590Y2074926D01*
X7902447Y2081784D01*
X7895590Y2088642D01*
X7888731Y2081784D01*
X7895590Y2034031D02*
G01*
X7895590Y1918207D01*
X7888731Y1897634D01*
X7875015Y1890776D01*
X7861554Y1890776D01*
X8022336Y2013457D02*
G01*
X8015477Y2027173D01*
X7995158Y2034031D01*
X7974584Y2034031D01*
X7954263Y2027173D01*
X7947406Y2013457D01*
X7954263Y1999995D01*
X7967725Y1993137D01*
X8001761Y1986279D01*
X8015477Y1979421D01*
X8022336Y1965960D01*
X8022336Y1959102D01*
X8015477Y1945386D01*
X7995158Y1938528D01*
X7974584Y1938528D01*
X7954263Y1945386D01*
X7947406Y1959102D01*
X8149081Y2013457D02*
G01*
X8135620Y2027173D01*
X8121904Y2034031D01*
X8101329Y2034031D01*
X8087868Y2027173D01*
X8074152Y2013457D01*
X8067293Y1993137D01*
X8067293Y1979421D01*
X8074152Y1959102D01*
X8087868Y1945386D01*
X8101329Y1938528D01*
X8121904Y1938528D01*
X8135620Y1945386D01*
X8149081Y1959102D01*
X8194040Y2081784D02*
G01*
X8194040Y1938528D01*
X8194040Y2006854D02*
G01*
X8214613Y2027173D01*
X8228329Y2034031D01*
X8248650Y2034031D01*
X8262365Y2027173D01*
X8269224Y2006854D01*
X8269224Y1938528D01*
X8314181Y2081784D02*
G01*
X8314181Y1938528D01*
X8440927Y2034031D02*
G01*
X8440927Y1938528D01*
X8440927Y2013457D02*
G01*
X8427465Y2027173D01*
X8413750Y2034031D01*
X8393175Y2034031D01*
X8379713Y2027173D01*
X8365997Y2013457D01*
X8359140Y1993137D01*
X8359140Y1979421D01*
X8365997Y1959102D01*
X8379713Y1945386D01*
X8393175Y1938528D01*
X8413750Y1938528D01*
X8427465Y1945386D01*
X8440927Y1959102D01*
X8567674Y2013457D02*
G01*
X8554211Y2027173D01*
X8540495Y2034031D01*
X8520175Y2034031D01*
X8506459Y2027173D01*
X8492743Y2013457D01*
X8485886Y1993137D01*
X8485886Y1979421D01*
X8492743Y1959102D01*
X8506459Y1945386D01*
X8520175Y1938528D01*
X8540495Y1938528D01*
X8554211Y1945386D01*
X8567674Y1959102D01*
X8612886Y2081784D02*
G01*
X8612886Y1938528D01*
X8612886Y2006854D02*
G01*
X8633206Y2027173D01*
X8646922Y2034031D01*
X8667241Y2034031D01*
X8680958Y2027173D01*
X8687815Y2006854D01*
X8687815Y1938528D01*
X8732774Y1993137D02*
G01*
X8814561Y1993137D01*
X8814561Y2006854D01*
X8807704Y2020315D01*
X8801100Y2027173D01*
X8787384Y2034031D01*
X8766809Y2034031D01*
X8753347Y2027173D01*
X8739631Y2013457D01*
X8732774Y1993137D01*
X8732774Y1979421D01*
X8739631Y1959102D01*
X8753347Y1945386D01*
X8766809Y1938528D01*
X8787384Y1938528D01*
X8801100Y1945386D01*
X8814561Y1959102D01*
X8880093Y2081784D02*
G01*
X8880093Y1965960D01*
X8886952Y1945386D01*
X8900413Y1938528D01*
X8914129Y1938528D01*
X8859520Y2034031D02*
G01*
X8907272Y2034031D01*
D42*
X11468100Y286004D02*
G01*
X11477243Y290576D01*
X11490706Y304037D01*
X11490706Y208534D01*
X11575288Y290576D02*
G01*
X11570715Y299465D01*
X11557254Y304037D01*
X11548109Y304037D01*
X11534393Y299465D01*
X11525250Y286004D01*
X11520931Y263144D01*
X11520931Y240537D01*
X11525250Y222250D01*
X11534393Y213105D01*
X11548109Y208534D01*
X11552681Y208534D01*
X11566397Y213105D01*
X11575288Y222250D01*
X11579859Y235965D01*
X11579859Y240537D01*
X11575288Y254000D01*
X11566397Y263144D01*
X11552681Y267715D01*
X11548109Y267715D01*
X11534393Y263144D01*
X11525250Y254000D01*
X11520931Y240537D01*
X11637263Y304037D02*
G01*
X11623547Y299465D01*
X11614404Y286004D01*
X11609831Y263144D01*
X11609831Y249681D01*
X11614404Y226821D01*
X11623547Y213105D01*
X11637263Y208534D01*
X11646408Y208534D01*
X11659870Y213105D01*
X11669013Y226821D01*
X11673586Y249681D01*
X11673586Y263144D01*
X11669013Y286004D01*
X11659870Y299465D01*
X11646408Y304037D01*
X11637263Y304037D01*
X11708129Y281431D02*
G01*
X11708129Y286004D01*
X11712702Y294894D01*
X11717274Y299465D01*
X11726163Y304037D01*
X11744452Y304037D01*
X11753595Y299465D01*
X11758168Y294894D01*
X11762740Y286004D01*
X11762740Y276860D01*
X11758168Y267715D01*
X11749024Y254000D01*
X11703558Y208534D01*
X11767311Y208534D01*
X11833606Y304037D02*
G01*
X11797284Y208534D01*
X11833606Y304037D02*
G01*
X11869927Y208534D01*
X11810745Y240537D02*
G01*
X11856211Y240537D01*
X11970004Y304037D02*
G01*
X11970004Y208534D01*
X11970004Y208534D02*
G01*
X12024359Y208534D01*
X12122658Y281431D02*
G01*
X12118086Y290576D01*
X12108941Y299465D01*
X12099797Y304037D01*
X12081763Y304037D01*
X12072620Y299465D01*
X12063475Y290576D01*
X12058904Y281431D01*
X12054586Y267715D01*
X12054586Y245110D01*
X12058904Y231394D01*
X12063475Y222250D01*
X12072620Y213105D01*
X12081763Y208534D01*
X12099797Y208534D01*
X12108941Y213105D01*
X12118086Y222250D01*
X12122658Y231394D01*
X12152629Y304037D02*
G01*
X12152629Y208534D01*
X12152629Y304037D02*
G01*
X12184379Y304037D01*
X12198095Y299465D01*
X12207240Y290576D01*
X12211811Y281431D01*
X12216384Y267715D01*
X12216384Y245110D01*
X12211811Y231394D01*
X12207240Y222250D01*
X12198095Y213105D01*
X12184379Y208534D01*
X12152629Y208534D01*
X2950972Y5729731D02*
G01*
X2946654Y5738876D01*
X2937509Y5747765D01*
X2928365Y5752337D01*
X2910077Y5752337D01*
X2901188Y5747765D01*
X2892043Y5738876D01*
X2887472Y5729731D01*
X2882900Y5716015D01*
X2882900Y5693410D01*
X2887472Y5679694D01*
X2892043Y5670550D01*
X2901188Y5661405D01*
X2910077Y5656834D01*
X2928365Y5656834D01*
X2937509Y5661405D01*
X2946654Y5670550D01*
X2950972Y5679694D01*
X2981197Y5752337D02*
G01*
X2981197Y5656834D01*
X2981197Y5656834D02*
G01*
X3035554Y5656834D01*
X3092958Y5752337D02*
G01*
X3083813Y5747765D01*
X3074670Y5738876D01*
X3070097Y5729731D01*
X3065525Y5716015D01*
X3065525Y5693410D01*
X3070097Y5679694D01*
X3074670Y5670550D01*
X3083813Y5661405D01*
X3092958Y5656834D01*
X3110991Y5656834D01*
X3120136Y5661405D01*
X3129279Y5670550D01*
X3133852Y5679694D01*
X3138424Y5693410D01*
X3138424Y5716015D01*
X3133852Y5729731D01*
X3129279Y5738876D01*
X3120136Y5747765D01*
X3110991Y5752337D01*
X3092958Y5752337D01*
X3236468Y5729731D02*
G01*
X3231895Y5738876D01*
X3223006Y5747765D01*
X3213861Y5752337D01*
X3195574Y5752337D01*
X3186429Y5747765D01*
X3177540Y5738876D01*
X3172968Y5729731D01*
X3168395Y5716015D01*
X3168395Y5693410D01*
X3172968Y5679694D01*
X3177540Y5670550D01*
X3186429Y5661405D01*
X3195574Y5656834D01*
X3213861Y5656834D01*
X3223006Y5661405D01*
X3231895Y5670550D01*
X3236468Y5679694D01*
X3266440Y5752337D02*
G01*
X3266440Y5656834D01*
X3330193Y5752337D02*
G01*
X3266440Y5688837D01*
X3289300Y5711444D02*
G01*
X3330193Y5656834D01*
D43*
X13094461Y4172965D02*
G01*
X13167106Y4172965D01*
X13180822Y4168394D01*
X13185393Y4163821D01*
X13189966Y4154678D01*
X13189966Y4145787D01*
X13185393Y4136644D01*
X13180822Y4132071D01*
X13167106Y4127500D01*
X13157961Y4127500D01*
X13094461Y4202937D02*
G01*
X13189966Y4202937D01*
X13189966Y4202937D02*
G01*
X13189966Y4257547D01*
X13117068Y4355592D02*
G01*
X13107924Y4351020D01*
X13099034Y4342129D01*
X13094461Y4332986D01*
X13094461Y4314697D01*
X13099034Y4305807D01*
X13107924Y4296663D01*
X13117068Y4292092D01*
X13130784Y4287520D01*
X13153390Y4287520D01*
X13167106Y4292092D01*
X13176250Y4296663D01*
X13185393Y4305807D01*
X13189966Y4314697D01*
X13189966Y4332986D01*
X13185393Y4342129D01*
X13176250Y4351020D01*
X13167106Y4355592D01*
X13094461Y4431029D02*
G01*
X13167106Y4431029D01*
X13180822Y4426712D01*
X13185393Y4422139D01*
X13189966Y4412995D01*
X13189966Y4403852D01*
X13185393Y4394707D01*
X13180822Y4390136D01*
X13167106Y4385563D01*
X13157961Y4385563D01*
X13094461Y4461255D02*
G01*
X13189966Y4461255D01*
X13189966Y4461255D02*
G01*
X13189966Y4515612D01*
X13117068Y4613910D02*
G01*
X13107924Y4609337D01*
X13099034Y4600194D01*
X13094461Y4591050D01*
X13094461Y4573015D01*
X13099034Y4563871D01*
X13107924Y4554728D01*
X13117068Y4550155D01*
X13130784Y4545584D01*
X13153390Y4545584D01*
X13167106Y4550155D01*
X13176250Y4554728D01*
X13185393Y4563871D01*
X13189966Y4573015D01*
X13189966Y4591050D01*
X13185393Y4600194D01*
X13176250Y4609337D01*
X13167106Y4613910D01*
X13094461Y4689347D02*
G01*
X13167106Y4689347D01*
X13180822Y4684776D01*
X13185393Y4680204D01*
X13189966Y4671060D01*
X13189966Y4662170D01*
X13185393Y4653026D01*
X13180822Y4648454D01*
X13167106Y4643881D01*
X13157961Y4643881D01*
X13094461Y4719320D02*
G01*
X13189966Y4719320D01*
X13189966Y4719320D02*
G01*
X13189966Y4773929D01*
X13117068Y4871973D02*
G01*
X13107924Y4867402D01*
X13099034Y4858512D01*
X13094461Y4849368D01*
X13094461Y4831079D01*
X13099034Y4821936D01*
X13107924Y4813045D01*
X13117068Y4808473D01*
X13130784Y4803902D01*
X13153390Y4803902D01*
X13167106Y4808473D01*
X13176250Y4813045D01*
X13185393Y4821936D01*
X13189966Y4831079D01*
X13189966Y4849368D01*
X13185393Y4858512D01*
X13176250Y4867402D01*
X13167106Y4871973D01*
X13094461Y4947412D02*
G01*
X13167106Y4947412D01*
X13180822Y4942839D01*
X13185393Y4938521D01*
X13189966Y4929378D01*
X13189966Y4920234D01*
X13185393Y4911089D01*
X13180822Y4906518D01*
X13167106Y4901945D01*
X13157961Y4901945D01*
X13094461Y4977384D02*
G01*
X13189966Y4977384D01*
X13189966Y4977384D02*
G01*
X13189966Y5031994D01*
X13117068Y5130292D02*
G01*
X13107924Y5125720D01*
X13099034Y5116576D01*
X13094461Y5107431D01*
X13094461Y5089397D01*
X13099034Y5080254D01*
X13107924Y5071110D01*
X13117068Y5066537D01*
X13130784Y5061965D01*
X13153390Y5061965D01*
X13167106Y5066537D01*
X13176250Y5071110D01*
X13185393Y5080254D01*
X13189966Y5089397D01*
X13189966Y5107431D01*
X13185393Y5116576D01*
X13176250Y5125720D01*
X13167106Y5130292D01*
D38*
X6743700Y8432037D02*
G01*
X6780022Y8336534D01*
X6816343Y8432037D02*
G01*
X6780022Y8336534D01*
X6846315Y8432037D02*
G01*
X6846315Y8336534D01*
X6912863Y8432037D02*
G01*
X6876541Y8336534D01*
X6912863Y8432037D02*
G01*
X6949186Y8336534D01*
X6890004Y8368537D02*
G01*
X6935470Y8368537D01*
X6979158Y8414004D02*
G01*
X6988302Y8418576D01*
X7001763Y8432037D01*
X7001763Y8336534D01*
X8813800Y8432037D02*
G01*
X8850122Y8336534D01*
X8886443Y8432037D02*
G01*
X8850122Y8336534D01*
X8916415Y8432037D02*
G01*
X8916415Y8336534D01*
X8982963Y8432037D02*
G01*
X8946641Y8336534D01*
X8982963Y8432037D02*
G01*
X9019286Y8336534D01*
X8960104Y8368537D02*
G01*
X9005570Y8368537D01*
X9053829Y8409431D02*
G01*
X9053829Y8414004D01*
X9058402Y8422894D01*
X9062974Y8427465D01*
X9071863Y8432037D01*
X9090152Y8432037D01*
X9099295Y8427465D01*
X9103868Y8422894D01*
X9108440Y8414004D01*
X9108440Y8404860D01*
X9103868Y8395715D01*
X9094724Y8382000D01*
X9049258Y8336534D01*
X9113011Y8336534D01*
X10896600Y8432037D02*
G01*
X10932922Y8336534D01*
X10969243Y8432037D02*
G01*
X10932922Y8336534D01*
X10999215Y8432037D02*
G01*
X10999215Y8336534D01*
X11065763Y8432037D02*
G01*
X11029441Y8336534D01*
X11065763Y8432037D02*
G01*
X11102086Y8336534D01*
X11042904Y8368537D02*
G01*
X11088370Y8368537D01*
X11141202Y8432037D02*
G01*
X11191240Y8432037D01*
X11163808Y8395715D01*
X11177524Y8395715D01*
X11186668Y8391144D01*
X11191240Y8386571D01*
X11195811Y8373110D01*
X11195811Y8363965D01*
X11191240Y8350250D01*
X11182095Y8341105D01*
X11168379Y8336534D01*
X11154663Y8336534D01*
X11141202Y8341105D01*
X11136629Y8345678D01*
X11132058Y8354821D01*
X1016000Y6806437D02*
G01*
X1016000Y6710934D01*
X1016000Y6806437D02*
G01*
X1056894Y6806437D01*
X1070610Y6801865D01*
X1075181Y6797294D01*
X1079754Y6788404D01*
X1079754Y6779260D01*
X1075181Y6770115D01*
X1070610Y6765544D01*
X1056894Y6760971D01*
X1016000Y6760971D01*
X1047750Y6760971D02*
G01*
X1079754Y6710934D01*
X1146047Y6806437D02*
G01*
X1109726Y6710934D01*
X1146047Y6806437D02*
G01*
X1182370Y6710934D01*
X1123187Y6742937D02*
G01*
X1168654Y6742937D01*
X1212342Y6806437D02*
G01*
X1212342Y6710934D01*
X1212342Y6806437D02*
G01*
X1248663Y6710934D01*
X1284986Y6806437D02*
G01*
X1248663Y6710934D01*
X1284986Y6806437D02*
G01*
X1284986Y6710934D01*
X4686300Y8432037D02*
G01*
X4686300Y8336534D01*
X4686300Y8432037D02*
G01*
X4722622Y8336534D01*
X4758943Y8432037D02*
G01*
X4722622Y8336534D01*
X4758943Y8432037D02*
G01*
X4758943Y8336534D01*
X4788915Y8432037D02*
G01*
X4788915Y8336534D01*
X4788915Y8432037D02*
G01*
X4829809Y8432037D01*
X4843525Y8427465D01*
X4848097Y8422894D01*
X4852670Y8414004D01*
X4852670Y8400287D01*
X4848097Y8391144D01*
X4843525Y8386571D01*
X4829809Y8382000D01*
X4788915Y8382000D01*
X4882641Y8432037D02*
G01*
X4882641Y8363965D01*
X4887213Y8350250D01*
X4896358Y8341105D01*
X4909820Y8336534D01*
X4918963Y8336534D01*
X4932679Y8341105D01*
X4941824Y8350250D01*
X4946395Y8363965D01*
X4946395Y8432037D01*
X13117322Y6869937D02*
G01*
X13081000Y6774434D01*
X13117322Y6869937D02*
G01*
X13153643Y6774434D01*
X13094715Y6806437D02*
G01*
X13140181Y6806437D01*
X13251941Y6847331D02*
G01*
X13247370Y6856476D01*
X13238225Y6865365D01*
X13229081Y6869937D01*
X13211047Y6869937D01*
X13201904Y6865365D01*
X13192759Y6856476D01*
X13188188Y6847331D01*
X13183616Y6833615D01*
X13183616Y6811010D01*
X13188188Y6797294D01*
X13192759Y6788150D01*
X13201904Y6779005D01*
X13211047Y6774434D01*
X13229081Y6774434D01*
X13238225Y6779005D01*
X13247370Y6788150D01*
X13251941Y6797294D01*
X13281913Y6869937D02*
G01*
X13281913Y6774434D01*
X13348208Y6869937D02*
G01*
X13311886Y6774434D01*
X13348208Y6869937D02*
G01*
X13384529Y6774434D01*
X13325602Y6806437D02*
G01*
X13371068Y6806437D01*
D42*
X2005584Y8267700D02*
G01*
X2114550Y8267700D01*
X2005584Y8267700D02*
G01*
X2005584Y8314436D01*
X2010663Y8329929D01*
X2015997Y8335263D01*
X2026411Y8340344D01*
X2036825Y8340344D01*
X2047240Y8335263D01*
X2052320Y8329929D01*
X2057400Y8314436D01*
X2057400Y8267700D01*
X2057400Y8304021D02*
G01*
X2114550Y8340344D01*
X2005584Y8426704D02*
G01*
X2078227Y8374634D01*
X2078227Y8452612D01*
X2005584Y8426704D02*
G01*
X2114550Y8426704D01*
X1611884Y7226300D02*
G01*
X1720850Y7226300D01*
X1611884Y7226300D02*
G01*
X1611884Y7273036D01*
X1616963Y7288529D01*
X1622297Y7293863D01*
X1632712Y7298944D01*
X1643126Y7298944D01*
X1653539Y7293863D01*
X1658620Y7288529D01*
X1663700Y7273036D01*
X1663700Y7226300D01*
X1663700Y7262621D02*
G01*
X1720850Y7298944D01*
X1611884Y7395718D02*
G01*
X1611884Y7343647D01*
X1658620Y7338568D01*
X1653539Y7343647D01*
X1648205Y7359395D01*
X1648205Y7374889D01*
X1653539Y7390384D01*
X1663700Y7400797D01*
X1679447Y7406131D01*
X1689862Y7406131D01*
X1705355Y7400797D01*
X1715770Y7390384D01*
X1720850Y7374889D01*
X1720850Y7359395D01*
X1715770Y7343647D01*
X1710689Y7338568D01*
X1700276Y7333234D01*
X11200384Y1117600D02*
G01*
X11278361Y1117600D01*
X11293856Y1122679D01*
X11304270Y1133094D01*
X11309350Y1148842D01*
X11309350Y1159255D01*
X11304270Y1174750D01*
X11293856Y1185163D01*
X11278361Y1190244D01*
X11200384Y1190244D01*
X11200384Y1250695D02*
G01*
X11205463Y1234947D01*
X11215877Y1229868D01*
X11226291Y1229868D01*
X11236706Y1234947D01*
X11242040Y1245362D01*
X11247120Y1266189D01*
X11252200Y1281684D01*
X11262613Y1292097D01*
X11273027Y1297431D01*
X11288775Y1297431D01*
X11299190Y1292097D01*
X11304270Y1287018D01*
X11309350Y1271270D01*
X11309350Y1250695D01*
X11304270Y1234947D01*
X11299190Y1229868D01*
X11288775Y1224534D01*
X11273027Y1224534D01*
X11262613Y1229868D01*
X11252200Y1240281D01*
X11247120Y1255776D01*
X11242040Y1276604D01*
X11236706Y1287018D01*
X11226291Y1292097D01*
X11215877Y1292097D01*
X11205463Y1287018D01*
X11200384Y1271270D01*
X11200384Y1250695D01*
X11200384Y2197100D02*
G01*
X11278361Y2197100D01*
X11293856Y2202179D01*
X11304270Y2212594D01*
X11309350Y2228342D01*
X11309350Y2238755D01*
X11304270Y2254250D01*
X11293856Y2264663D01*
X11278361Y2269744D01*
X11200384Y2269744D01*
X11236706Y2371597D02*
G01*
X11252200Y2366518D01*
X11262613Y2356104D01*
X11267947Y2340610D01*
X11267947Y2335276D01*
X11262613Y2319781D01*
X11252200Y2309368D01*
X11236706Y2304034D01*
X11231625Y2304034D01*
X11215877Y2309368D01*
X11205463Y2319781D01*
X11200384Y2335276D01*
X11200384Y2340610D01*
X11205463Y2356104D01*
X11215877Y2366518D01*
X11236706Y2371597D01*
X11262613Y2371597D01*
X11288775Y2366518D01*
X11304270Y2356104D01*
X11309350Y2340610D01*
X11309350Y2330195D01*
X11304270Y2314447D01*
X11293856Y2309368D01*
X5359400Y3010915D02*
G01*
X5359400Y2932937D01*
X5364479Y2917444D01*
X5374893Y2907029D01*
X5390641Y2901950D01*
X5401056Y2901950D01*
X5416550Y2907029D01*
X5426963Y2917444D01*
X5432043Y2932937D01*
X5432043Y3010915D01*
X5466334Y2990087D02*
G01*
X5476747Y2995421D01*
X5492495Y3010915D01*
X5492495Y2901950D01*
X7442200Y2998215D02*
G01*
X7442200Y2920237D01*
X7447279Y2904744D01*
X7457693Y2894329D01*
X7473441Y2889250D01*
X7483856Y2889250D01*
X7499350Y2894329D01*
X7509763Y2904744D01*
X7514843Y2920237D01*
X7514843Y2998215D01*
X7601204Y2998215D02*
G01*
X7549134Y2925571D01*
X7627111Y2925571D01*
X7601204Y2998215D02*
G01*
X7601204Y2889250D01*
X9512300Y3010915D02*
G01*
X9512300Y2932937D01*
X9517379Y2917444D01*
X9527793Y2907029D01*
X9543541Y2901950D01*
X9553956Y2901950D01*
X9569450Y2907029D01*
X9579863Y2917444D01*
X9584943Y2932937D01*
X9584943Y3010915D01*
X9681718Y3010915D02*
G01*
X9629647Y3010915D01*
X9624568Y2964179D01*
X9629647Y2969260D01*
X9645395Y2974594D01*
X9660890Y2974594D01*
X9676384Y2969260D01*
X9686797Y2959100D01*
X9692131Y2943352D01*
X9692131Y2932937D01*
X9686797Y2917444D01*
X9676384Y2907029D01*
X9660890Y2901950D01*
X9645395Y2901950D01*
X9629647Y2907029D01*
X9624568Y2912110D01*
X9619234Y2922523D01*
X11595100Y3023615D02*
G01*
X11595100Y2945637D01*
X11600179Y2930144D01*
X11610593Y2919729D01*
X11626341Y2914650D01*
X11636756Y2914650D01*
X11652250Y2919729D01*
X11662663Y2930144D01*
X11667743Y2945637D01*
X11667743Y3023615D01*
X11764518Y3008121D02*
G01*
X11759184Y3018536D01*
X11743690Y3023615D01*
X11733275Y3023615D01*
X11717781Y3018536D01*
X11707368Y3002787D01*
X11702034Y2976879D01*
X11702034Y2950971D01*
X11707368Y2930144D01*
X11717781Y2919729D01*
X11733275Y2914650D01*
X11738609Y2914650D01*
X11754104Y2919729D01*
X11764518Y2930144D01*
X11769597Y2945637D01*
X11769597Y2950971D01*
X11764518Y2966465D01*
X11754104Y2976879D01*
X11738609Y2981960D01*
X11733275Y2981960D01*
X11717781Y2976879D01*
X11707368Y2966465D01*
X11702034Y2950971D01*
X787400Y9411715D02*
G01*
X787400Y9333737D01*
X792479Y9318244D01*
X802894Y9307829D01*
X818642Y9302750D01*
X829055Y9302750D01*
X844550Y9307829D01*
X854963Y9318244D01*
X860044Y9333737D01*
X860044Y9411715D01*
X894334Y9390887D02*
G01*
X904747Y9396221D01*
X920495Y9411715D01*
X920495Y9302750D01*
X985773Y9411715D02*
G01*
X970279Y9406636D01*
X959865Y9390887D01*
X954786Y9364979D01*
X954786Y9349486D01*
X959865Y9323324D01*
X970279Y9307829D01*
X985773Y9302750D01*
X996187Y9302750D01*
X1011936Y9307829D01*
X1022350Y9323324D01*
X1027429Y9349486D01*
X1027429Y9364979D01*
X1022350Y9390887D01*
X1011936Y9406636D01*
X996187Y9411715D01*
X985773Y9411715D01*
X2808477Y8534908D02*
G01*
X2803143Y8545321D01*
X2792729Y8555736D01*
X2782570Y8560815D01*
X2761741Y8560815D01*
X2751327Y8555736D01*
X2740913Y8545321D01*
X2735579Y8534908D01*
X2730500Y8519160D01*
X2730500Y8493252D01*
X2735579Y8477758D01*
X2740913Y8467344D01*
X2751327Y8456929D01*
X2761741Y8451850D01*
X2782570Y8451850D01*
X2792729Y8456929D01*
X2803143Y8467344D01*
X2808477Y8477758D01*
X2842768Y8539987D02*
G01*
X2853181Y8545321D01*
X2868675Y8560815D01*
X2868675Y8451850D01*
X2934208Y8560815D02*
G01*
X2918459Y8555736D01*
X2908300Y8539987D01*
X2902965Y8514079D01*
X2902965Y8498586D01*
X2908300Y8472424D01*
X2918459Y8456929D01*
X2934208Y8451850D01*
X2944622Y8451850D01*
X2960115Y8456929D01*
X2970529Y8472424D01*
X2975609Y8498586D01*
X2975609Y8514079D01*
X2970529Y8539987D01*
X2960115Y8555736D01*
X2944622Y8560815D01*
X2934208Y8560815D01*
X3041141Y8560815D02*
G01*
X3025647Y8555736D01*
X3015234Y8539987D01*
X3009900Y8514079D01*
X3009900Y8498586D01*
X3015234Y8472424D01*
X3025647Y8456929D01*
X3041141Y8451850D01*
X3051556Y8451850D01*
X3067050Y8456929D01*
X3077463Y8472424D01*
X3082797Y8498586D01*
X3082797Y8514079D01*
X3077463Y8539987D01*
X3067050Y8555736D01*
X3051556Y8560815D01*
X3041141Y8560815D01*
X1611884Y8280400D02*
G01*
X1720850Y8280400D01*
X1611884Y8280400D02*
G01*
X1611884Y8327136D01*
X1616963Y8342629D01*
X1622297Y8347963D01*
X1632712Y8353044D01*
X1643126Y8353044D01*
X1653539Y8347963D01*
X1658620Y8342629D01*
X1663700Y8327136D01*
X1663700Y8280400D01*
X1663700Y8316721D02*
G01*
X1720850Y8353044D01*
X1611884Y8397747D02*
G01*
X1611884Y8454897D01*
X1653539Y8423910D01*
X1653539Y8439404D01*
X1658620Y8449818D01*
X1663700Y8454897D01*
X1679447Y8460231D01*
X1689862Y8460231D01*
X1705355Y8454897D01*
X1715770Y8444484D01*
X1720850Y8428989D01*
X1720850Y8413495D01*
X1715770Y8397747D01*
X1710689Y8392668D01*
X1700276Y8387334D01*
X13628877Y711707D02*
G01*
X13623543Y722121D01*
X13613129Y732536D01*
X13602970Y737615D01*
X13582141Y737615D01*
X13571727Y732536D01*
X13561313Y722121D01*
X13555979Y711707D01*
X13550900Y695960D01*
X13550900Y670052D01*
X13555979Y654557D01*
X13561313Y644144D01*
X13571727Y633729D01*
X13582141Y628650D01*
X13602970Y628650D01*
X13613129Y633729D01*
X13623543Y644144D01*
X13628877Y654557D01*
X13663168Y716787D02*
G01*
X13673581Y722121D01*
X13689075Y737615D01*
X13689075Y628650D01*
X13723366Y716787D02*
G01*
X13733779Y722121D01*
X13749274Y737615D01*
X13749274Y628650D01*
X12204700Y2477566D02*
G01*
X12204700Y2368600D01*
X12204700Y2477566D02*
G01*
X12251436Y2477566D01*
X12266929Y2472486D01*
X12272263Y2467152D01*
X12277343Y2456738D01*
X12277343Y2441244D01*
X12272263Y2430830D01*
X12266929Y2425750D01*
X12251436Y2420416D01*
X12204700Y2420416D01*
X12342875Y2477566D02*
G01*
X12332461Y2472486D01*
X12322047Y2462072D01*
X12316968Y2451658D01*
X12311634Y2436164D01*
X12311634Y2410002D01*
X12316968Y2394508D01*
X12322047Y2384094D01*
X12332461Y2373680D01*
X12342875Y2368600D01*
X12363704Y2368600D01*
X12374118Y2373680D01*
X12384531Y2384094D01*
X12389611Y2394508D01*
X12394945Y2410002D01*
X12394945Y2436164D01*
X12389611Y2451658D01*
X12384531Y2462072D01*
X12374118Y2472486D01*
X12363704Y2477566D01*
X12342875Y2477566D01*
X12429236Y2477566D02*
G01*
X12455143Y2368600D01*
X12481052Y2477566D02*
G01*
X12455143Y2368600D01*
X12481052Y2477566D02*
G01*
X12506959Y2368600D01*
X12533122Y2477566D02*
G01*
X12506959Y2368600D01*
X12567411Y2477566D02*
G01*
X12567411Y2368600D01*
X12567411Y2477566D02*
G01*
X12634975Y2477566D01*
X12567411Y2425750D02*
G01*
X12608813Y2425750D01*
X12567411Y2368600D02*
G01*
X12634975Y2368600D01*
X12669265Y2477566D02*
G01*
X12669265Y2368600D01*
X12669265Y2477566D02*
G01*
X12716002Y2477566D01*
X12731495Y2472486D01*
X12736829Y2467152D01*
X12741909Y2456738D01*
X12741909Y2446578D01*
X12736829Y2436164D01*
X12731495Y2430830D01*
X12716002Y2425750D01*
X12669265Y2425750D01*
X12705588Y2425750D02*
G01*
X12741909Y2368600D01*
X13690600Y3023615D02*
G01*
X13690600Y2945637D01*
X13695679Y2930144D01*
X13706093Y2919729D01*
X13721841Y2914650D01*
X13732256Y2914650D01*
X13747750Y2919729D01*
X13758163Y2930144D01*
X13763243Y2945637D01*
X13763243Y3023615D01*
X13870431Y3023615D02*
G01*
X13818361Y2914650D01*
X13797534Y3023615D02*
G01*
X13870431Y3023615D01*
X3556000Y2375915D02*
G01*
X3556000Y2297937D01*
X3561079Y2282444D01*
X3571493Y2272029D01*
X3587241Y2266950D01*
X3597656Y2266950D01*
X3613150Y2272029D01*
X3623563Y2282444D01*
X3628643Y2297937D01*
X3628643Y2375915D01*
X3668268Y2350007D02*
G01*
X3668268Y2355087D01*
X3673347Y2365502D01*
X3678681Y2370836D01*
X3689095Y2375915D01*
X3709670Y2375915D01*
X3720084Y2370836D01*
X3725418Y2365502D01*
X3730497Y2355087D01*
X3730497Y2344673D01*
X3725418Y2334260D01*
X3715004Y2318765D01*
X3662934Y2266950D01*
X3735831Y2266950D01*
X1562100Y3010915D02*
G01*
X1562100Y2932937D01*
X1567179Y2917444D01*
X1577594Y2907029D01*
X1593342Y2901950D01*
X1603755Y2901950D01*
X1619250Y2907029D01*
X1629663Y2917444D01*
X1634744Y2932937D01*
X1634744Y3010915D01*
X1679447Y3010915D02*
G01*
X1736597Y3010915D01*
X1705610Y2969260D01*
X1721104Y2969260D01*
X1731518Y2964179D01*
X1736597Y2959100D01*
X1741931Y2943352D01*
X1741931Y2932937D01*
X1736597Y2917444D01*
X1726184Y2907029D01*
X1710689Y2901950D01*
X1695195Y2901950D01*
X1679447Y2907029D01*
X1674368Y2912110D01*
X1669034Y2922523D01*
X2336800Y5373115D02*
G01*
X2409443Y5264150D01*
X2409443Y5373115D02*
G01*
X2336800Y5264150D01*
X2443734Y5352287D02*
G01*
X2454147Y5357621D01*
X2469895Y5373115D01*
X2469895Y5264150D01*
X12268200Y8725915D02*
G01*
X12340843Y8616950D01*
X12340843Y8725915D02*
G01*
X12268200Y8616950D01*
X12380468Y8700008D02*
G01*
X12380468Y8705087D01*
X12385547Y8715502D01*
X12390881Y8720836D01*
X12401295Y8725915D01*
X12421870Y8725915D01*
X12432284Y8720836D01*
X12437618Y8715502D01*
X12442697Y8705087D01*
X12442697Y8694674D01*
X12437618Y8684260D01*
X12427204Y8668765D01*
X12375134Y8616950D01*
X12448031Y8616950D01*
X2336800Y8256015D02*
G01*
X2409443Y8147050D01*
X2409443Y8256015D02*
G01*
X2336800Y8147050D01*
X2454147Y8256015D02*
G01*
X2511297Y8256015D01*
X2480309Y8214360D01*
X2495804Y8214360D01*
X2506218Y8209279D01*
X2511297Y8204200D01*
X2516631Y8188452D01*
X2516631Y8178037D01*
X2511297Y8162544D01*
X2500884Y8152129D01*
X2485390Y8147050D01*
X2469895Y8147050D01*
X2454147Y8152129D01*
X2449068Y8157210D01*
X2443734Y8167623D01*
X5831077Y8496808D02*
G01*
X5825743Y8507221D01*
X5815329Y8517636D01*
X5805170Y8522715D01*
X5784341Y8522715D01*
X5773927Y8517636D01*
X5763513Y8507221D01*
X5758179Y8496808D01*
X5753100Y8481060D01*
X5753100Y8455152D01*
X5758179Y8439658D01*
X5763513Y8429244D01*
X5773927Y8418829D01*
X5784341Y8413750D01*
X5805170Y8413750D01*
X5815329Y8418829D01*
X5825743Y8429244D01*
X5831077Y8439658D01*
X5865368Y8501887D02*
G01*
X5875781Y8507221D01*
X5891275Y8522715D01*
X5891275Y8413750D01*
X329692Y1487678D02*
G01*
X319278Y1482344D01*
X308863Y1471929D01*
X303784Y1461770D01*
X303784Y1440942D01*
X308863Y1430528D01*
X319278Y1420113D01*
X329692Y1414779D01*
X345439Y1409700D01*
X371347Y1409700D01*
X386842Y1414779D01*
X397255Y1420113D01*
X407670Y1430528D01*
X412750Y1440942D01*
X412750Y1461770D01*
X407670Y1471929D01*
X397255Y1482344D01*
X386842Y1487678D01*
X329692Y1527047D02*
G01*
X324612Y1527047D01*
X314197Y1532381D01*
X308863Y1537462D01*
X303784Y1547876D01*
X303784Y1568704D01*
X308863Y1579118D01*
X314197Y1584197D01*
X324612Y1589531D01*
X335026Y1589531D01*
X345439Y1584197D01*
X360934Y1573784D01*
X412750Y1521968D01*
X412750Y1594612D01*
X1106678Y2997707D02*
G01*
X1101344Y3008121D01*
X1090929Y3018536D01*
X1080770Y3023615D01*
X1059942Y3023615D01*
X1049528Y3018536D01*
X1039113Y3008121D01*
X1033779Y2997707D01*
X1028700Y2981960D01*
X1028700Y2956052D01*
X1033779Y2940557D01*
X1039113Y2930144D01*
X1049528Y2919729D01*
X1059942Y2914650D01*
X1080770Y2914650D01*
X1090929Y2919729D01*
X1101344Y2930144D01*
X1106678Y2940557D01*
X1151381Y3023615D02*
G01*
X1208531Y3023615D01*
X1177289Y2981960D01*
X1192784Y2981960D01*
X1203197Y2976879D01*
X1208531Y2971800D01*
X1213612Y2956052D01*
X1213612Y2945637D01*
X1208531Y2930144D01*
X1198118Y2919729D01*
X1182370Y2914650D01*
X1166876Y2914650D01*
X1151381Y2919729D01*
X1146047Y2924810D01*
X1140968Y2935223D01*
X6618477Y2858007D02*
G01*
X6613143Y2868421D01*
X6602729Y2878836D01*
X6592570Y2883915D01*
X6571741Y2883915D01*
X6561327Y2878836D01*
X6550913Y2868421D01*
X6545579Y2858007D01*
X6540500Y2842260D01*
X6540500Y2816352D01*
X6545579Y2800857D01*
X6550913Y2790444D01*
X6561327Y2780029D01*
X6571741Y2774950D01*
X6592570Y2774950D01*
X6602729Y2780029D01*
X6613143Y2790444D01*
X6618477Y2800857D01*
X6704584Y2883915D02*
G01*
X6652768Y2811271D01*
X6730745Y2811271D01*
X6704584Y2883915D02*
G01*
X6704584Y2774950D01*
X8701277Y2858007D02*
G01*
X8695943Y2868421D01*
X8685529Y2878836D01*
X8675370Y2883915D01*
X8654541Y2883915D01*
X8644127Y2878836D01*
X8633713Y2868421D01*
X8628379Y2858007D01*
X8623300Y2842260D01*
X8623300Y2816352D01*
X8628379Y2800857D01*
X8633713Y2790444D01*
X8644127Y2780029D01*
X8654541Y2774950D01*
X8675370Y2774950D01*
X8685529Y2780029D01*
X8695943Y2790444D01*
X8701277Y2800857D01*
X8797797Y2883915D02*
G01*
X8745981Y2883915D01*
X8740647Y2837179D01*
X8745981Y2842260D01*
X8761475Y2847594D01*
X8776970Y2847594D01*
X8792718Y2842260D01*
X8803131Y2832100D01*
X8808211Y2816352D01*
X8808211Y2805937D01*
X8803131Y2790444D01*
X8792718Y2780029D01*
X8776970Y2774950D01*
X8761475Y2774950D01*
X8745981Y2780029D01*
X8740647Y2785110D01*
X8735568Y2795523D01*
X10784077Y2858007D02*
G01*
X10778743Y2868421D01*
X10768329Y2878836D01*
X10758170Y2883915D01*
X10737341Y2883915D01*
X10726927Y2878836D01*
X10716513Y2868421D01*
X10711179Y2858007D01*
X10706100Y2842260D01*
X10706100Y2816352D01*
X10711179Y2800857D01*
X10716513Y2790444D01*
X10726927Y2780029D01*
X10737341Y2774950D01*
X10758170Y2774950D01*
X10768329Y2780029D01*
X10778743Y2790444D01*
X10784077Y2800857D01*
X10880597Y2868421D02*
G01*
X10875518Y2878836D01*
X10859770Y2883915D01*
X10849609Y2883915D01*
X10833861Y2878836D01*
X10823447Y2863087D01*
X10818368Y2837179D01*
X10818368Y2811271D01*
X10823447Y2790444D01*
X10833861Y2780029D01*
X10849609Y2774950D01*
X10854690Y2774950D01*
X10870184Y2780029D01*
X10880597Y2790444D01*
X10885931Y2805937D01*
X10885931Y2811271D01*
X10880597Y2826765D01*
X10870184Y2837179D01*
X10854690Y2842260D01*
X10849609Y2842260D01*
X10833861Y2837179D01*
X10823447Y2826765D01*
X10818368Y2811271D01*
X12181077Y7049008D02*
G01*
X12175743Y7059421D01*
X12165329Y7069836D01*
X12155170Y7074915D01*
X12134341Y7074915D01*
X12123927Y7069836D01*
X12113513Y7059421D01*
X12108179Y7049008D01*
X12103100Y7033260D01*
X12103100Y7007352D01*
X12108179Y6991858D01*
X12113513Y6981444D01*
X12123927Y6971029D01*
X12134341Y6965950D01*
X12155170Y6965950D01*
X12165329Y6971029D01*
X12175743Y6981444D01*
X12181077Y6991858D01*
X12288011Y7074915D02*
G01*
X12236195Y6965950D01*
X12215368Y7074915D02*
G01*
X12288011Y7074915D01*
X8993377Y1689607D02*
G01*
X8988043Y1700021D01*
X8977629Y1710436D01*
X8967470Y1715515D01*
X8946641Y1715515D01*
X8936227Y1710436D01*
X8925813Y1700021D01*
X8920479Y1689607D01*
X8915400Y1673860D01*
X8915400Y1647952D01*
X8920479Y1632457D01*
X8925813Y1622044D01*
X8936227Y1611629D01*
X8946641Y1606550D01*
X8967470Y1606550D01*
X8977629Y1611629D01*
X8988043Y1622044D01*
X8993377Y1632457D01*
X9053575Y1715515D02*
G01*
X9038081Y1710436D01*
X9032747Y1700021D01*
X9032747Y1689607D01*
X9038081Y1679194D01*
X9048495Y1673860D01*
X9069070Y1668779D01*
X9084818Y1663700D01*
X9095231Y1653286D01*
X9100311Y1642871D01*
X9100311Y1627123D01*
X9095231Y1616710D01*
X9089897Y1611629D01*
X9074404Y1606550D01*
X9053575Y1606550D01*
X9038081Y1611629D01*
X9032747Y1616710D01*
X9027668Y1627123D01*
X9027668Y1642871D01*
X9032747Y1653286D01*
X9043161Y1663700D01*
X9058909Y1668779D01*
X9079484Y1673860D01*
X9089897Y1679194D01*
X9095231Y1689607D01*
X9095231Y1700021D01*
X9089897Y1710436D01*
X9074404Y1715515D01*
X9053575Y1715515D01*
X11581891Y1868678D02*
G01*
X11571477Y1863344D01*
X11561063Y1852929D01*
X11555984Y1842770D01*
X11555984Y1821942D01*
X11561063Y1811528D01*
X11571477Y1801113D01*
X11581891Y1795779D01*
X11597640Y1790700D01*
X11623547Y1790700D01*
X11639041Y1795779D01*
X11649456Y1801113D01*
X11659870Y1811528D01*
X11664950Y1821942D01*
X11664950Y1842770D01*
X11659870Y1852929D01*
X11649456Y1863344D01*
X11639041Y1868678D01*
X11592306Y1970531D02*
G01*
X11607800Y1965197D01*
X11618213Y1954784D01*
X11623547Y1939289D01*
X11623547Y1934210D01*
X11618213Y1918462D01*
X11607800Y1908047D01*
X11592306Y1902968D01*
X11587225Y1902968D01*
X11571477Y1908047D01*
X11561063Y1918462D01*
X11555984Y1934210D01*
X11555984Y1939289D01*
X11561063Y1954784D01*
X11571477Y1965197D01*
X11592306Y1970531D01*
X11618213Y1970531D01*
X11644375Y1965197D01*
X11659870Y1954784D01*
X11664950Y1939289D01*
X11664950Y1928876D01*
X11659870Y1913381D01*
X11649456Y1908047D01*
X1055878Y7061708D02*
G01*
X1050544Y7072121D01*
X1040129Y7082536D01*
X1029970Y7087615D01*
X1009142Y7087615D01*
X998728Y7082536D01*
X988313Y7072121D01*
X982979Y7061708D01*
X977900Y7045960D01*
X977900Y7020052D01*
X982979Y7004558D01*
X988313Y6994144D01*
X998728Y6983729D01*
X1009142Y6978650D01*
X1029970Y6978650D01*
X1040129Y6983729D01*
X1050544Y6994144D01*
X1055878Y7004558D01*
X1090168Y7066787D02*
G01*
X1100581Y7072121D01*
X1116076Y7087615D01*
X1116076Y6978650D01*
X1181607Y7087615D02*
G01*
X1165860Y7082536D01*
X1155700Y7066787D01*
X1150365Y7040879D01*
X1150365Y7025386D01*
X1155700Y6999223D01*
X1165860Y6983729D01*
X1181607Y6978650D01*
X1192021Y6978650D01*
X1207515Y6983729D01*
X1217929Y6999223D01*
X1223010Y7025386D01*
X1223010Y7040879D01*
X1217929Y7066787D01*
X1207515Y7082536D01*
X1192021Y7087615D01*
X1181607Y7087615D01*
X14060677Y724407D02*
G01*
X14055343Y734821D01*
X14044929Y745236D01*
X14034770Y750315D01*
X14013941Y750315D01*
X14003527Y745236D01*
X13993113Y734821D01*
X13987779Y724407D01*
X13982700Y708660D01*
X13982700Y682752D01*
X13987779Y667257D01*
X13993113Y656844D01*
X14003527Y646429D01*
X14013941Y641350D01*
X14034770Y641350D01*
X14044929Y646429D01*
X14055343Y656844D01*
X14060677Y667257D01*
X14094968Y729487D02*
G01*
X14105381Y734821D01*
X14120875Y750315D01*
X14120875Y641350D01*
X14160500Y724407D02*
G01*
X14160500Y729487D01*
X14165579Y739902D01*
X14170659Y745236D01*
X14181074Y750315D01*
X14201902Y750315D01*
X14212316Y745236D01*
X14217650Y739902D01*
X14222729Y729487D01*
X14222729Y719073D01*
X14217650Y708660D01*
X14207236Y693165D01*
X14155166Y641350D01*
X14227809Y641350D01*
X12396977Y1753107D02*
G01*
X12391643Y1763521D01*
X12381229Y1773936D01*
X12371070Y1779015D01*
X12350241Y1779015D01*
X12339827Y1773936D01*
X12329413Y1763521D01*
X12324079Y1753107D01*
X12319000Y1737360D01*
X12319000Y1711452D01*
X12324079Y1695957D01*
X12329413Y1685544D01*
X12339827Y1675129D01*
X12350241Y1670050D01*
X12371070Y1670050D01*
X12381229Y1675129D01*
X12391643Y1685544D01*
X12396977Y1695957D01*
X12431268Y1758187D02*
G01*
X12441681Y1763521D01*
X12457175Y1779015D01*
X12457175Y1670050D01*
X12522708Y1779015D02*
G01*
X12506959Y1773936D01*
X12496800Y1758187D01*
X12491465Y1732279D01*
X12491465Y1716786D01*
X12496800Y1690623D01*
X12506959Y1675129D01*
X12522708Y1670050D01*
X12533122Y1670050D01*
X12548615Y1675129D01*
X12559029Y1690623D01*
X12564109Y1716786D01*
X12564109Y1732279D01*
X12559029Y1758187D01*
X12548615Y1773936D01*
X12533122Y1779015D01*
X12522708Y1779015D01*
X12598400Y1758187D02*
G01*
X12608813Y1763521D01*
X12624561Y1779015D01*
X12624561Y1670050D01*
X8077200Y572515D02*
G01*
X8077200Y463550D01*
X8077200Y572515D02*
G01*
X8123936Y572515D01*
X8139429Y567436D01*
X8144763Y562102D01*
X8149843Y551687D01*
X8149843Y536194D01*
X8144763Y525779D01*
X8139429Y520700D01*
X8123936Y515365D01*
X8077200Y515365D01*
X8215375Y572515D02*
G01*
X8204961Y567436D01*
X8194547Y557021D01*
X8189468Y546607D01*
X8184134Y530860D01*
X8184134Y504952D01*
X8189468Y489457D01*
X8194547Y479044D01*
X8204961Y468629D01*
X8215375Y463550D01*
X8236204Y463550D01*
X8246618Y468629D01*
X8257031Y479044D01*
X8262111Y489457D01*
X8267445Y504952D01*
X8267445Y530860D01*
X8262111Y546607D01*
X8257031Y557021D01*
X8246618Y567436D01*
X8236204Y572515D01*
X8215375Y572515D01*
X8338058Y572515D02*
G01*
X8338058Y463550D01*
X8301736Y572515D02*
G01*
X8374379Y572515D01*
X8408670Y551687D02*
G01*
X8419084Y557021D01*
X8434577Y572515D01*
X8434577Y463550D01*
X3975100Y8700515D02*
G01*
X3975100Y8591550D01*
X3975100Y8700515D02*
G01*
X4021836Y8700515D01*
X4037329Y8695436D01*
X4042663Y8690102D01*
X4047743Y8679687D01*
X4047743Y8669274D01*
X4042663Y8658860D01*
X4037329Y8653779D01*
X4021836Y8648700D01*
X3975100Y8648700D01*
X4011422Y8648700D02*
G01*
X4047743Y8591550D01*
X4082034Y8679687D02*
G01*
X4092447Y8685021D01*
X4108195Y8700515D01*
X4108195Y8591550D01*
X3504184Y7353300D02*
G01*
X3613150Y7353300D01*
X3504184Y7353300D02*
G01*
X3504184Y7400036D01*
X3509263Y7415529D01*
X3514597Y7420863D01*
X3525011Y7425944D01*
X3535425Y7425944D01*
X3545840Y7420863D01*
X3550920Y7415529D01*
X3556000Y7400036D01*
X3556000Y7353300D01*
X3556000Y7389621D02*
G01*
X3613150Y7425944D01*
X3530091Y7465568D02*
G01*
X3525011Y7465568D01*
X3514597Y7470647D01*
X3509263Y7475981D01*
X3504184Y7486395D01*
X3504184Y7506970D01*
X3509263Y7517384D01*
X3514597Y7522718D01*
X3525011Y7527797D01*
X3535425Y7527797D01*
X3545840Y7522718D01*
X3561334Y7512304D01*
X3613150Y7460234D01*
X3613150Y7533131D01*
X13627100Y1690115D02*
G01*
X13627100Y1581150D01*
X13627100Y1690115D02*
G01*
X13673836Y1690115D01*
X13689329Y1685036D01*
X13694663Y1679702D01*
X13699743Y1669287D01*
X13699743Y1658873D01*
X13694663Y1648460D01*
X13689329Y1643379D01*
X13673836Y1638300D01*
X13627100Y1638300D01*
X13663422Y1638300D02*
G01*
X13699743Y1581150D01*
X13760195Y1690115D02*
G01*
X13744447Y1685036D01*
X13739368Y1674621D01*
X13739368Y1664207D01*
X13744447Y1653794D01*
X13754861Y1648460D01*
X13775690Y1643379D01*
X13791184Y1638300D01*
X13801597Y1627886D01*
X13806931Y1617471D01*
X13806931Y1601723D01*
X13801597Y1591310D01*
X13796518Y1586229D01*
X13780770Y1581150D01*
X13760195Y1581150D01*
X13744447Y1586229D01*
X13739368Y1591310D01*
X13734034Y1601723D01*
X13734034Y1617471D01*
X13739368Y1627886D01*
X13749781Y1638300D01*
X13765275Y1643379D01*
X13786104Y1648460D01*
X13796518Y1653794D01*
X13801597Y1664207D01*
X13801597Y1674621D01*
X13796518Y1685036D01*
X13780770Y1690115D01*
X13760195Y1690115D01*
X3504184Y6350000D02*
G01*
X3613150Y6350000D01*
X3504184Y6350000D02*
G01*
X3504184Y6396736D01*
X3509263Y6412229D01*
X3514597Y6417563D01*
X3525011Y6422644D01*
X3535425Y6422644D01*
X3545840Y6417563D01*
X3550920Y6412229D01*
X3556000Y6396736D01*
X3556000Y6350000D01*
X3556000Y6386321D02*
G01*
X3613150Y6422644D01*
X3540506Y6524497D02*
G01*
X3556000Y6519418D01*
X3566413Y6509004D01*
X3571747Y6493510D01*
X3571747Y6488176D01*
X3566413Y6472681D01*
X3556000Y6462268D01*
X3540506Y6456934D01*
X3535425Y6456934D01*
X3519677Y6462268D01*
X3509263Y6472681D01*
X3504184Y6488176D01*
X3504184Y6493510D01*
X3509263Y6509004D01*
X3519677Y6519418D01*
X3540506Y6524497D01*
X3566413Y6524497D01*
X3592575Y6519418D01*
X3608070Y6509004D01*
X3613150Y6493510D01*
X3613150Y6483095D01*
X3608070Y6467347D01*
X3597656Y6462268D01*
X12738100Y2718815D02*
G01*
X12738100Y2609850D01*
X12738100Y2718815D02*
G01*
X12784836Y2718815D01*
X12800329Y2713736D01*
X12805663Y2708402D01*
X12810743Y2697987D01*
X12810743Y2687573D01*
X12805663Y2677160D01*
X12800329Y2672079D01*
X12784836Y2667000D01*
X12738100Y2667000D01*
X12774422Y2667000D02*
G01*
X12810743Y2609850D01*
X12845034Y2697987D02*
G01*
X12855447Y2703321D01*
X12871195Y2718815D01*
X12871195Y2609850D01*
X12936474Y2718815D02*
G01*
X12920979Y2713736D01*
X12910565Y2697987D01*
X12905486Y2672079D01*
X12905486Y2656586D01*
X12910565Y2630423D01*
X12920979Y2614929D01*
X12936474Y2609850D01*
X12946888Y2609850D01*
X12962636Y2614929D01*
X12973050Y2630423D01*
X12978129Y2656586D01*
X12978129Y2672079D01*
X12973050Y2697987D01*
X12962636Y2713736D01*
X12946888Y2718815D01*
X12936474Y2718815D01*
X12280900Y583437D02*
G01*
X12280900Y487934D01*
X12280900Y583437D02*
G01*
X12321793Y583437D01*
X12335509Y578865D01*
X12340081Y574294D01*
X12344654Y565404D01*
X12344654Y556260D01*
X12340081Y547115D01*
X12335509Y542544D01*
X12321793Y537971D01*
X12280900Y537971D01*
X12312650Y537971D02*
G01*
X12344654Y487934D01*
X12374625Y583437D02*
G01*
X12374625Y487934D01*
X12374625Y583437D02*
G01*
X12433554Y583437D01*
X12374625Y537971D02*
G01*
X12410947Y537971D01*
X12374625Y487934D02*
G01*
X12433554Y487934D01*
X12527279Y569976D02*
G01*
X12518136Y578865D01*
X12504420Y583437D01*
X12486386Y583437D01*
X12472670Y578865D01*
X12463525Y569976D01*
X12463525Y560831D01*
X12468097Y551687D01*
X12472670Y547115D01*
X12481813Y542544D01*
X12508991Y533400D01*
X12518136Y529081D01*
X12522708Y524510D01*
X12527279Y515365D01*
X12527279Y501650D01*
X12518136Y492505D01*
X12504420Y487934D01*
X12486386Y487934D01*
X12472670Y492505D01*
X12463525Y501650D01*
X12557252Y583437D02*
G01*
X12557252Y487934D01*
X12557252Y583437D02*
G01*
X12616434Y583437D01*
X12557252Y537971D02*
G01*
X12593574Y537971D01*
X12557252Y487934D02*
G01*
X12616434Y487934D01*
X12678156Y583437D02*
G01*
X12678156Y487934D01*
X12646406Y583437D02*
G01*
X12709906Y583437D01*
X1028687Y9894315D02*
G01*
X1028687Y9785350D01*
X1028687Y9894315D02*
G01*
X1075423Y9894315D01*
X1090917Y9889236D01*
X1096251Y9883902D01*
X1101331Y9873487D01*
X1101331Y9863074D01*
X1096251Y9852660D01*
X1090917Y9847579D01*
X1075423Y9842500D01*
X1028687Y9842500D01*
X1065009Y9842500D02*
G01*
X1101331Y9785350D01*
X1135621Y9894315D02*
G01*
X1135621Y9785350D01*
X1135621Y9894315D02*
G01*
X1182357Y9894315D01*
X1198105Y9889236D01*
X1203185Y9883902D01*
X1208519Y9873487D01*
X1208519Y9857994D01*
X1203185Y9847579D01*
X1198105Y9842500D01*
X1182357Y9837165D01*
X1135621Y9837165D01*
X1242809Y9873487D02*
G01*
X1253223Y9878821D01*
X1268717Y9894315D01*
X1268717Y9785350D01*
X11658600Y1296415D02*
G01*
X11658600Y1218437D01*
X11663679Y1202944D01*
X11674093Y1192529D01*
X11689841Y1187450D01*
X11700256Y1187450D01*
X11715750Y1192529D01*
X11726163Y1202944D01*
X11731243Y1218437D01*
X11731243Y1296415D01*
X11765534Y1275587D02*
G01*
X11775947Y1280921D01*
X11791695Y1296415D01*
X11791695Y1187450D01*
X11856974Y1296415D02*
G01*
X11841479Y1291336D01*
X11831065Y1275587D01*
X11825986Y1249679D01*
X11825986Y1234186D01*
X11831065Y1208023D01*
X11841479Y1192529D01*
X11856974Y1187450D01*
X11867388Y1187450D01*
X11883136Y1192529D01*
X11893550Y1208023D01*
X11898629Y1234186D01*
X11898629Y1249679D01*
X11893550Y1275587D01*
X11883136Y1291336D01*
X11867388Y1296415D01*
X11856974Y1296415D01*
X11964161Y1296415D02*
G01*
X11948413Y1291336D01*
X11938000Y1275587D01*
X11932920Y1249679D01*
X11932920Y1234186D01*
X11938000Y1208023D01*
X11948413Y1192529D01*
X11964161Y1187450D01*
X11974575Y1187450D01*
X11990070Y1192529D01*
X12000484Y1208023D01*
X12005563Y1234186D01*
X12005563Y1249679D01*
X12000484Y1275587D01*
X11990070Y1291336D01*
X11974575Y1296415D01*
X11964161Y1296415D01*
G36*
X2942437Y9232849D02*
G01*
X2926588Y9232239D01*
X2910789Y9230817D01*
X2895142Y9228582D01*
X2879547Y9225584D01*
X2864205Y9221724D01*
X2849016Y9217101D01*
X2834132Y9211716D01*
X2819501Y9205569D01*
X2805226Y9198660D01*
X2791358Y9191040D01*
X2777845Y9182709D01*
X2764840Y9173667D01*
X2752242Y9164015D01*
X2740202Y9153702D01*
X2728722Y9142780D01*
X2717800Y9131300D01*
X3175000Y9131300D01*
X3164078Y9142780D01*
X3152597Y9153702D01*
X3140557Y9164015D01*
X3127959Y9173667D01*
X3114954Y9182709D01*
X3101441Y9191040D01*
X3087573Y9198660D01*
X3073298Y9205569D01*
X3058668Y9211716D01*
X3043783Y9217101D01*
X3028594Y9221724D01*
X3013252Y9225584D01*
X2997657Y9228582D01*
X2982010Y9230817D01*
X2966212Y9232239D01*
X2950362Y9232849D01*
G37*
G36*
X13652500Y1278686D02*
G01*
X13638834Y1278280D01*
X13625220Y1277061D01*
X13611707Y1275029D01*
X13598347Y1272184D01*
X13585190Y1268526D01*
X13578687Y1266444D01*
X13565886Y1261618D01*
X13553389Y1256080D01*
X13541248Y1249781D01*
X13529513Y1242771D01*
X13518235Y1235049D01*
X13507415Y1226667D01*
X13497153Y1217676D01*
X13487400Y1208125D01*
X13817600Y1208125D01*
X13807846Y1217676D01*
X13797584Y1226667D01*
X13786764Y1235049D01*
X13775486Y1242771D01*
X13763751Y1249781D01*
X13751610Y1256080D01*
X13739113Y1261618D01*
X13726363Y1266444D01*
X13713256Y1270457D01*
X13699998Y1273708D01*
X13686536Y1276146D01*
X13672972Y1277772D01*
X13659357Y1278585D01*
G37*
D10*
X1879600Y8623300D02*
G01*
X1879600Y8648700D01*
X1879600Y8115300D02*
G01*
X1879600Y8089900D01*
X1879600Y8623300D02*
G01*
X1955800Y8623300D01*
X1803400Y8623300D02*
G01*
X1879600Y8623300D01*
X1803400Y8115300D02*
G01*
X1803400Y8623300D01*
X1879600Y8115300D02*
G01*
X1803400Y8115300D01*
X1955800Y8115300D02*
G01*
X1879600Y8115300D01*
X1955800Y8623300D02*
G01*
X1955800Y8115300D01*
X1485900Y7048500D02*
G01*
X1485900Y7023100D01*
X1485900Y7556500D02*
G01*
X1485900Y7581900D01*
X1485900Y7048500D02*
G01*
X1409700Y7048500D01*
X1562100Y7048500D02*
G01*
X1485900Y7048500D01*
X1562100Y7556500D02*
G01*
X1562100Y7048500D01*
X1485900Y7556500D02*
G01*
X1562100Y7556500D01*
X1409700Y7556500D02*
G01*
X1485900Y7556500D01*
X1409700Y7048500D02*
G01*
X1409700Y7556500D01*
D34*
X11150600Y1295400D02*
G01*
X9372600Y1295400D01*
X9372600Y787400D01*
X11150600Y787400D01*
X11150600Y1295400D01*
X11150600Y2374900D02*
G01*
X9372600Y2374900D01*
X9372600Y1866900D01*
X11150600Y1866900D01*
X11150600Y2374900D01*
D35*
X4100575Y8201405D02*
G01*
X4100575Y3101594D01*
X4100575Y3101594D02*
G01*
X5500624Y3101594D01*
X5500624Y3101594D02*
G01*
X5500624Y8201405D01*
X4100575Y8201405D02*
G01*
X5500624Y8201405D01*
X6183375Y8201405D02*
G01*
X6183375Y3101594D01*
X6183375Y3101594D02*
G01*
X7583424Y3101594D01*
X7583424Y3101594D02*
G01*
X7583424Y8201405D01*
X6183375Y8201405D02*
G01*
X7583424Y8201405D01*
X8266175Y8201405D02*
G01*
X8266175Y3101594D01*
X8266175Y3101594D02*
G01*
X9666224Y3101594D01*
X9666224Y3101594D02*
G01*
X9666224Y8201405D01*
X8266175Y8201405D02*
G01*
X9666224Y8201405D01*
X10348975Y8201405D02*
G01*
X10348975Y3101594D01*
X10348975Y3101594D02*
G01*
X11749024Y3101594D01*
X11749024Y3101594D02*
G01*
X11749024Y8201405D01*
X10348975Y8201405D02*
G01*
X11749024Y8201405D01*
D34*
X990600Y7175500D02*
G01*
X990600Y9207500D01*
X482600Y9207500D01*
X482600Y7175500D01*
X990600Y7175500D01*
D10*
X2794000Y8737600D02*
G01*
X2794000Y8839200D01*
X2743200Y8788400D02*
G01*
X2844800Y8788400D01*
X1485900Y8623300D02*
G01*
X1485900Y8648700D01*
X1485900Y8115300D02*
G01*
X1485900Y8089900D01*
X1485900Y8623300D02*
G01*
X1562100Y8623300D01*
X1409700Y8623300D02*
G01*
X1485900Y8623300D01*
X1409700Y8115300D02*
G01*
X1409700Y8623300D01*
X1485900Y8115300D02*
G01*
X1409700Y8115300D01*
X1562100Y8115300D02*
G01*
X1485900Y8115300D01*
X1562100Y8623300D02*
G01*
X1562100Y8115300D01*
X13457882Y963272D02*
G01*
X13537882Y963272D01*
X13497882Y923272D02*
G01*
X13497882Y1003272D01*
X12354100Y1847103D02*
G01*
X12614099Y1847103D01*
X3787599Y9659096D02*
G01*
X3527600Y9659096D01*
D34*
X13868400Y3111500D02*
G01*
X13868400Y6667500D01*
X12598400Y6667500D01*
X12598400Y3111500D01*
X13868400Y3111500D01*
X1778000Y736600D02*
G01*
X5334000Y736600D01*
X5334000Y2006600D01*
X1778000Y2006600D01*
X1778000Y736600D01*
X1752600Y3111500D02*
G01*
X1752600Y6667500D01*
X482600Y6667500D01*
X482600Y3111500D01*
X1752600Y3111500D01*
D36*
X2236724Y3133344D02*
G01*
X3451606Y3133344D01*
X3451606Y5148326D01*
X2161793Y5148326D02*
G01*
X2161793Y3208273D01*
X3376675Y5223255D02*
G01*
X2236724Y5223255D01*
X12163043Y8482076D02*
G01*
X12163043Y7267194D01*
X14178025Y7267194D01*
X14178025Y8557005D02*
G01*
X12237974Y8557005D01*
X14252956Y7342123D02*
G01*
X14252956Y8482076D01*
X2236724Y6003544D02*
G01*
X3451606Y6003544D01*
X3451606Y8018526D01*
X2161793Y8018526D02*
G01*
X2161793Y6078473D01*
X3376675Y8093455D02*
G01*
X2236724Y8093455D01*
D37*
X2298700Y5575300D02*
G01*
X2616200Y5575300D01*
D38*
X2298700Y5575300D02*
G01*
X2298700Y5829300D01*
X2806700Y5829300D01*
X2806700Y5575300D01*
X2616200Y5575300D01*
D37*
X12941300Y2298700D02*
G01*
X12941300Y1981200D01*
D38*
X12941300Y2298700D02*
G01*
X13195300Y2298700D01*
X13195300Y1790700D01*
X12941300Y1790700D01*
X12941300Y1981200D01*
X14058900Y1790700D02*
G01*
X14566900Y1790700D01*
X14566900Y2806700D01*
X14058900Y2806700D01*
X14058900Y1790700D01*
D39*
X5702045Y8597645D02*
G01*
X5194045Y8597645D01*
X5194045Y8343645D01*
X5702045Y8343645D01*
X5702045Y8597645D01*
X482345Y825754D02*
G01*
X482345Y1333754D01*
X228345Y1333754D01*
X228345Y825754D01*
X482345Y825754D01*
X990345Y3022345D02*
G01*
X482345Y3022345D01*
X482345Y2768345D01*
X990345Y2768345D01*
X990345Y3022345D01*
X6502145Y2958845D02*
G01*
X5994145Y2958845D01*
X5994145Y2704845D01*
X6502145Y2704845D01*
X6502145Y2958845D01*
X8584945Y2958845D02*
G01*
X8076945Y2958845D01*
X8076945Y2704845D01*
X8584945Y2704845D01*
X8584945Y2958845D01*
X10667745Y2958845D02*
G01*
X10159745Y2958845D01*
X10159745Y2704845D01*
X10667745Y2704845D01*
X10667745Y2958845D01*
X12344654Y6820154D02*
G01*
X12852654Y6820154D01*
X12852654Y7074154D01*
X12344654Y7074154D01*
X12344654Y6820154D01*
X9245345Y1549145D02*
G01*
X8737345Y1549145D01*
X8737345Y1295145D01*
X9245345Y1295145D01*
X9245345Y1549145D01*
X11265154Y2120645D02*
G01*
X11265154Y1612645D01*
X11519154Y1612645D01*
X11519154Y2120645D01*
X11265154Y2120645D01*
X926845Y7099045D02*
G01*
X418845Y7099045D01*
X418845Y6845045D01*
X926845Y6845045D01*
X926845Y7099045D01*
X14236445Y787654D02*
G01*
X14236445Y1295654D01*
X13982445Y1295654D01*
X13982445Y787654D01*
X14236445Y787654D01*
X12230354Y1359154D02*
G01*
X12738354Y1359154D01*
X12738354Y1613154D01*
X12230354Y1613154D01*
X12230354Y1359154D01*
D38*
X14719300Y7188200D02*
G01*
X14465300Y7188200D01*
X14465300Y9220200D01*
X14719300Y9220200D01*
X14719300Y9029700D01*
D37*
X14719300Y7188200D02*
G01*
X14719300Y9029700D01*
D38*
X12280900Y9182100D02*
G01*
X12280900Y9436100D01*
X14312900Y9436100D01*
X14312900Y9182100D01*
X14122400Y9182100D01*
D37*
X12280900Y9182100D02*
G01*
X14122400Y9182100D01*
D40*
X11404600Y381000D02*
G01*
X7531100Y381000D01*
D38*
X11404600Y381000D02*
G01*
X11404600Y127000D01*
X7340600Y127000D01*
X7340600Y381000D01*
X7531100Y381000D01*
D40*
X14719300Y3060700D02*
G01*
X14719300Y6934200D01*
D38*
X14719300Y3060700D02*
G01*
X14465300Y3060700D01*
X14465300Y7124700D01*
X14719300Y7124700D01*
X14719300Y6934200D01*
D10*
X4076700Y9690100D02*
G01*
X4584700Y9690100D01*
X4584700Y9182100D01*
X4076700Y9182100D01*
X4076700Y9690100D01*
X6819897Y9690102D02*
G01*
X7327897Y9690102D01*
X7327897Y9182102D01*
X6819897Y9182102D01*
X6819897Y9690102D01*
X9563100Y9690100D02*
G01*
X10071100Y9690100D01*
X10071100Y9182100D01*
X9563100Y9182100D01*
X9563100Y9690100D01*
D38*
X14566900Y787400D02*
G01*
X14315440Y787400D01*
X14315440Y1295400D01*
X14566900Y1295400D01*
X14566900Y787400D01*
X2692400Y9436100D02*
G01*
X2692400Y9687560D01*
X3200400Y9687560D01*
X3200400Y9436100D01*
X2692400Y9436100D01*
X4660900Y9182100D02*
G01*
X6692900Y9182100D01*
X6692900Y9690100D01*
X4660900Y9690100D01*
X4660900Y9182100D01*
D40*
X4660900Y9436100D02*
G01*
X4914900Y9436100D01*
X4914900Y9182100D01*
D38*
X7404100Y9182100D02*
G01*
X9436100Y9182100D01*
X9436100Y9690100D01*
X7404100Y9690100D01*
X7404100Y9182100D01*
D40*
X7404100Y9436100D02*
G01*
X7658100Y9436100D01*
X7658100Y9182100D01*
D38*
X10147300Y9182100D02*
G01*
X12179300Y9182100D01*
X12179300Y9690100D01*
X10147300Y9690100D01*
X10147300Y9182100D01*
D40*
X10147300Y9436100D02*
G01*
X10401300Y9436100D01*
X10401300Y9182100D01*
D10*
X7848600Y1028700D02*
G01*
X7848600Y635000D01*
X8610600Y635000D01*
X8613140Y1038860D01*
X3784600Y8470900D02*
G01*
X3759200Y8470900D01*
X4292600Y8470900D02*
G01*
X4318000Y8470900D01*
X3784600Y8470900D02*
G01*
X3784600Y8547100D01*
X3784600Y8394700D02*
G01*
X3784600Y8470900D01*
X4292600Y8394700D02*
G01*
X3784600Y8394700D01*
X4292600Y8470900D02*
G01*
X4292600Y8394700D01*
X4292600Y8547100D02*
G01*
X4292600Y8470900D01*
X3784600Y8547100D02*
G01*
X4292600Y8547100D01*
X3733800Y7683500D02*
G01*
X3733800Y7708900D01*
X3733800Y7175500D02*
G01*
X3733800Y7150100D01*
X3733800Y7683500D02*
G01*
X3810000Y7683500D01*
X3657600Y7683500D02*
G01*
X3733800Y7683500D01*
X3657600Y7175500D02*
G01*
X3657600Y7683500D01*
X3733800Y7175500D02*
G01*
X3657600Y7175500D01*
X3810000Y7175500D02*
G01*
X3733800Y7175500D01*
X3810000Y7683500D02*
G01*
X3810000Y7175500D01*
X13474700Y1447800D02*
G01*
X13449300Y1447800D01*
X13982700Y1447800D02*
G01*
X14008100Y1447800D01*
X13474700Y1447800D02*
G01*
X13474700Y1524000D01*
X13474700Y1371600D02*
G01*
X13474700Y1447800D01*
X13982700Y1371600D02*
G01*
X13474700Y1371600D01*
X13982700Y1447800D02*
G01*
X13982700Y1371600D01*
X13982700Y1524000D02*
G01*
X13982700Y1447800D01*
X13474700Y1524000D02*
G01*
X13982700Y1524000D01*
X3733800Y6667500D02*
G01*
X3733800Y6692900D01*
X3733800Y6159500D02*
G01*
X3733800Y6134100D01*
X3733800Y6667500D02*
G01*
X3810000Y6667500D01*
X3657600Y6667500D02*
G01*
X3733800Y6667500D01*
X3657600Y6159500D02*
G01*
X3657600Y6667500D01*
X3733800Y6159500D02*
G01*
X3657600Y6159500D01*
X3810000Y6159500D02*
G01*
X3733800Y6159500D01*
X3810000Y6667500D02*
G01*
X3810000Y6159500D01*
X12598400Y2832100D02*
G01*
X12573000Y2832100D01*
X13106400Y2832100D02*
G01*
X13131800Y2832100D01*
X12598400Y2832100D02*
G01*
X12598400Y2908300D01*
X12598400Y2755900D02*
G01*
X12598400Y2832100D01*
X13106400Y2755900D02*
G01*
X12598400Y2755900D01*
X13106400Y2832100D02*
G01*
X13106400Y2755900D01*
X13106400Y2908300D02*
G01*
X13106400Y2832100D01*
X12598400Y2908300D02*
G01*
X13106400Y2908300D01*
X12814300Y1051844D02*
G01*
X12814300Y827755D01*
X12239086Y1244600D02*
G01*
X12729113Y1244600D01*
X12153900Y1051844D02*
G01*
X12153900Y827755D01*
X12239086Y635000D02*
G01*
X12729113Y635000D01*
X1938748Y9350006D02*
G01*
X1667700Y9350006D01*
X1330972Y9889083D02*
G01*
X2280983Y9889083D01*
X2280983Y8939072D01*
X1330972Y8939072D01*
X1330972Y9889083D01*
X11986386Y1086990D02*
G01*
X11986386Y691009D01*
D35*
G75*
G01*
X4648200Y8196834D02*
G03*
X4800600Y8044434I152400J0D01*
G75*
G01*
X4800600Y8044434D02*
G03*
X4953000Y8196834I0J152400D01*
G75*
G01*
X6731000Y8196834D02*
G03*
X6883400Y8044434I152400J0D01*
G75*
G01*
X6883400Y8044434D02*
G03*
X7035800Y8196834I0J152400D01*
G75*
G01*
X8813800Y8196834D02*
G03*
X8966200Y8044434I152400J0D01*
G75*
G01*
X8966200Y8044434D02*
G03*
X9118600Y8196834I0J152400D01*
G75*
G01*
X10896600Y8196834D02*
G03*
X11049000Y8044434I152400J0D01*
G75*
G01*
X11049000Y8044434D02*
G03*
X11201400Y8196834I0J152400D01*
D10*
G75*
G01*
X12622276Y1849933D02*
G03*
X12345924Y1849933I-138176J220244D01*
G75*
G01*
X3519424Y9656267D02*
G03*
X3795776Y9656267I138176J-220244D01*
G75*
G01*
X13106400Y3111500D02*
G02*
X13309600Y3111500I101600J0D01*
D36*
G75*
G01*
X3376699Y5223297D02*
G02*
X3451700Y5148296I0J-75001D01*
G75*
G01*
X2161703Y5148296D02*
G02*
X2236701Y5223297I75001J0D01*
G75*
G01*
X2236701Y3133301D02*
G02*
X2161703Y3208299I0J74998D01*
G75*
G01*
X14252997Y7342101D02*
G02*
X14177996Y7267100I-75001J0D01*
G75*
G01*
X14177996Y8557097D02*
G02*
X14252997Y8482099I0J-75001D01*
G75*
G01*
X12163001Y8482099D02*
G02*
X12237999Y8557097I74998J0D01*
G75*
G01*
X3376699Y8093497D02*
G02*
X3451700Y8018496I0J-75001D01*
G75*
G01*
X2161703Y8018496D02*
G02*
X2236701Y8093497I75001J0D01*
G75*
G01*
X2236701Y6003501D02*
G02*
X2161703Y6078499I0J74998D01*
D10*
G75*
G01*
X8614425Y1040315D02*
G03*
X7848290Y1028601I-384825J109127D01*
G75*
G01*
X1803336Y9485389D02*
G03*
X1805876Y9485389I1270J-135343D01*
G75*
G01*
X11986514Y1087120D02*
G03*
X11986514Y690880I-149840J-198120D01*
G75*
G01
X11049000Y1193800D02*
G03X11049000Y1193800I-25400J0D01*
G75*
G01
X11049000Y2273300D02*
G03X11049000Y2273300I-25400J0D01*
G75*
G01
X4406900Y8069834D02*
G03X4406900Y8069834I-50800J0D01*
G75*
G01
X6489700Y8069834D02*
G03X6489700Y8069834I-50800J0D01*
G75*
G01
X8572500Y8069834D02*
G03X8572500Y8069834I-50800J0D01*
G75*
G01
X10655300Y8069834D02*
G03X10655300Y8069834I-50800J0D01*
G75*
G01
X939800Y7302500D02*
G03X939800Y7302500I-25400J0D01*
G75*
G01
X3261360Y8915400D02*
G03X3261360Y8915400I-314960J0D01*
D41*
G75*
G01
X13902512Y1028700D02*
G03X13902512Y1028700I-250012J0D01*
D10*
G75*
G01
X13792200Y3238500D02*
G03X13792200Y3238500I-50800J0D01*
G75*
G01
X1930400Y812800D02*
G03X1930400Y812800I-25400J0D01*
G75*
G01
X1701800Y3238500D02*
G03X1701800Y3238500I-25400J0D01*
G75*
G01
X8674100Y1155700D02*
G03X8674100Y1155700I-444500J0D01*
G75*
G01
X12344400Y1117600D02*
G03X12344400Y1117600I-50800J0D01*
G75*
G01
X12331700Y762000D02*
G03X12331700Y762000I-50800J0D01*
G75*
G01
X12725400Y1117600D02*
G03X12725400Y1117600I-50800J0D01*
G75*
G01
X12712700Y762000D02*
G03X12712700Y762000I-50800J0D01*
G75*
G01
X12598400Y939800D02*
G03X12598400Y939800I-114300J0D01*
G75*
G01
X12634214Y939800D02*
G03X12634214Y939800I-150114J0D01*
M02*
