G04 Layer: TopSolderMaskLayer*
G04 EasyEDA v6.4.25, 2021-11-27T09:28:47--8:00*
G04 2bb479a7f6b54dcc958ccff802dfd9b2,a81d661f06f64e70a3419793c5b4ef82,10*
G04 Gerber Generator version 0.2*
G04 Scale: 100 percent, Rotated: No, Reflected: No *
G04 Dimensions in millimeters *
G04 leading zeros omitted , absolute positions ,4 integer and 5 decimal *
%FSLAX45Y45*%
%MOMM*%

%ADD44C,1.1032*%
%ADD45C,1.9812*%
%ADD46R,1.6002X1.6002*%
%ADD47C,1.6002*%
%ADD48C,3.2032*%
%ADD50C,1.6256*%
%ADD51C,1.4016*%
%ADD52C,1.7526*%
%ADD53R,1.8032X1.8032*%
%ADD54C,1.8032*%
%ADD56C,1.8016*%
%ADD58R,1.6764X1.6764*%
%ADD59C,1.6764*%
%ADD60C,1.2954*%
%ADD62C,1.9016*%
%ADD64C,1.7272*%

%LPD*%
D44*
X11801401Y1016000D02*
G01*
X11871401Y1016000D01*
X11801401Y889000D02*
G01*
X11871401Y889000D01*
D45*
G01*
X1879600Y8750300D03*
G01*
X1879600Y7988300D03*
G01*
X1485900Y6921500D03*
G01*
X1485900Y7683500D03*
G36*
X10943590Y1342389D02*
G01*
X10943590Y1502410D01*
X11103609Y1502410D01*
X11103609Y1342389D01*
G37*
D47*
G01*
X10769600Y1422400D03*
G01*
X10515600Y1422400D03*
G01*
X10261600Y1422400D03*
G01*
X10007600Y1422400D03*
G01*
X9753600Y1422400D03*
G01*
X9499600Y1422400D03*
G01*
X9499600Y660400D03*
G01*
X9753600Y660400D03*
G01*
X10007600Y660400D03*
G01*
X10261600Y660400D03*
G01*
X10515600Y660400D03*
G01*
X10769600Y660400D03*
G01*
X11023600Y660400D03*
G36*
X10943590Y2421889D02*
G01*
X10943590Y2581910D01*
X11103609Y2581910D01*
X11103609Y2421889D01*
G37*
G01*
X10769600Y2501900D03*
G01*
X10515600Y2501900D03*
G01*
X10261600Y2501900D03*
G01*
X10007600Y2501900D03*
G01*
X9753600Y2501900D03*
G01*
X9499600Y2501900D03*
G01*
X9499600Y1739900D03*
G01*
X9753600Y1739900D03*
G01*
X10007600Y1739900D03*
G01*
X10261600Y1739900D03*
G01*
X10515600Y1739900D03*
G01*
X10769600Y1739900D03*
G01*
X11023600Y1739900D03*
D48*
G01*
X399999Y9600001D03*
G01*
X14599920Y9599929D03*
G01*
X400050Y419100D03*
G01*
X14599920Y400050D03*
G36*
X3918458Y7984236D02*
G01*
X3918458Y8144510D01*
X4158741Y8144510D01*
X4158741Y7984236D01*
G37*
G36*
X3918458Y7730236D02*
G01*
X3918458Y7890510D01*
X4158741Y7890510D01*
X4158741Y7730236D01*
G37*
G36*
X3918458Y7476236D02*
G01*
X3918458Y7636510D01*
X4158741Y7636510D01*
X4158741Y7476236D01*
G37*
G36*
X3918458Y7222236D02*
G01*
X3918458Y7382510D01*
X4158741Y7382510D01*
X4158741Y7222236D01*
G37*
G36*
X3918458Y6968236D02*
G01*
X3918458Y7128510D01*
X4158741Y7128510D01*
X4158741Y6968236D01*
G37*
G36*
X3918458Y6714236D02*
G01*
X3918458Y6874510D01*
X4158741Y6874510D01*
X4158741Y6714236D01*
G37*
G36*
X3918458Y6460236D02*
G01*
X3918458Y6620510D01*
X4158741Y6620510D01*
X4158741Y6460236D01*
G37*
G36*
X3918458Y6206236D02*
G01*
X3918458Y6366510D01*
X4158741Y6366510D01*
X4158741Y6206236D01*
G37*
G36*
X3918458Y5952236D02*
G01*
X3918458Y6112510D01*
X4158741Y6112510D01*
X4158741Y5952236D01*
G37*
G36*
X3918458Y5698236D02*
G01*
X3918458Y5858510D01*
X4158741Y5858510D01*
X4158741Y5698236D01*
G37*
G36*
X3918458Y5444236D02*
G01*
X3918458Y5604510D01*
X4158741Y5604510D01*
X4158741Y5444236D01*
G37*
G36*
X3918458Y5190236D02*
G01*
X3918458Y5350510D01*
X4158741Y5350510D01*
X4158741Y5190236D01*
G37*
G36*
X3918458Y4936236D02*
G01*
X3918458Y5096510D01*
X4158741Y5096510D01*
X4158741Y4936236D01*
G37*
G36*
X3918458Y4682236D02*
G01*
X3918458Y4842510D01*
X4158741Y4842510D01*
X4158741Y4682236D01*
G37*
G36*
X3918458Y4428236D02*
G01*
X3918458Y4588510D01*
X4158741Y4588510D01*
X4158741Y4428236D01*
G37*
G36*
X3918458Y4174236D02*
G01*
X3918458Y4334510D01*
X4158741Y4334510D01*
X4158741Y4174236D01*
G37*
G36*
X3918458Y3920236D02*
G01*
X3918458Y4080510D01*
X4158741Y4080510D01*
X4158741Y3920236D01*
G37*
G36*
X3918458Y3666236D02*
G01*
X3918458Y3826510D01*
X4158741Y3826510D01*
X4158741Y3666236D01*
G37*
G36*
X3918458Y3412236D02*
G01*
X3918458Y3572510D01*
X4158741Y3572510D01*
X4158741Y3412236D01*
G37*
G36*
X3918458Y3158236D02*
G01*
X3918458Y3318510D01*
X4158741Y3318510D01*
X4158741Y3158236D01*
G37*
G36*
X5442458Y3158236D02*
G01*
X5442458Y3318510D01*
X5682741Y3318510D01*
X5682741Y3158236D01*
G37*
G36*
X5442458Y3412236D02*
G01*
X5442458Y3572510D01*
X5682741Y3572510D01*
X5682741Y3412236D01*
G37*
G36*
X5442458Y3666236D02*
G01*
X5442458Y3826510D01*
X5682741Y3826510D01*
X5682741Y3666236D01*
G37*
G36*
X5442458Y3920236D02*
G01*
X5442458Y4080510D01*
X5682741Y4080510D01*
X5682741Y3920236D01*
G37*
G36*
X5442458Y4174236D02*
G01*
X5442458Y4334510D01*
X5682741Y4334510D01*
X5682741Y4174236D01*
G37*
G36*
X5442458Y4428236D02*
G01*
X5442458Y4588510D01*
X5682741Y4588510D01*
X5682741Y4428236D01*
G37*
G36*
X5442458Y4682236D02*
G01*
X5442458Y4842510D01*
X5682741Y4842510D01*
X5682741Y4682236D01*
G37*
G36*
X5442458Y4936236D02*
G01*
X5442458Y5096510D01*
X5682741Y5096510D01*
X5682741Y4936236D01*
G37*
G36*
X5442458Y5190236D02*
G01*
X5442458Y5350510D01*
X5682741Y5350510D01*
X5682741Y5190236D01*
G37*
G36*
X5442458Y5444236D02*
G01*
X5442458Y5604510D01*
X5682741Y5604510D01*
X5682741Y5444236D01*
G37*
G36*
X5442458Y5698236D02*
G01*
X5442458Y5858510D01*
X5682741Y5858510D01*
X5682741Y5698236D01*
G37*
G36*
X5442458Y5952236D02*
G01*
X5442458Y6112510D01*
X5682741Y6112510D01*
X5682741Y5952236D01*
G37*
G36*
X5442458Y6206236D02*
G01*
X5442458Y6366510D01*
X5682741Y6366510D01*
X5682741Y6206236D01*
G37*
G36*
X5442458Y6460236D02*
G01*
X5442458Y6620510D01*
X5682741Y6620510D01*
X5682741Y6460236D01*
G37*
G36*
X5442458Y6714236D02*
G01*
X5442458Y6874510D01*
X5682741Y6874510D01*
X5682741Y6714236D01*
G37*
G36*
X5442458Y6968236D02*
G01*
X5442458Y7128510D01*
X5682741Y7128510D01*
X5682741Y6968236D01*
G37*
G36*
X5442458Y7222236D02*
G01*
X5442458Y7382510D01*
X5682741Y7382510D01*
X5682741Y7222236D01*
G37*
G36*
X5442458Y7476236D02*
G01*
X5442458Y7636510D01*
X5682741Y7636510D01*
X5682741Y7476236D01*
G37*
G36*
X5442458Y7730236D02*
G01*
X5442458Y7890510D01*
X5682741Y7890510D01*
X5682741Y7730236D01*
G37*
G36*
X5442458Y7984236D02*
G01*
X5442458Y8144510D01*
X5682741Y8144510D01*
X5682741Y7984236D01*
G37*
G36*
X6001258Y7984236D02*
G01*
X6001258Y8144510D01*
X6241541Y8144510D01*
X6241541Y7984236D01*
G37*
G36*
X6001258Y7730236D02*
G01*
X6001258Y7890510D01*
X6241541Y7890510D01*
X6241541Y7730236D01*
G37*
G36*
X6001258Y7476236D02*
G01*
X6001258Y7636510D01*
X6241541Y7636510D01*
X6241541Y7476236D01*
G37*
G36*
X6001258Y7222236D02*
G01*
X6001258Y7382510D01*
X6241541Y7382510D01*
X6241541Y7222236D01*
G37*
G36*
X6001258Y6968236D02*
G01*
X6001258Y7128510D01*
X6241541Y7128510D01*
X6241541Y6968236D01*
G37*
G36*
X6001258Y6714236D02*
G01*
X6001258Y6874510D01*
X6241541Y6874510D01*
X6241541Y6714236D01*
G37*
G36*
X6001258Y6460236D02*
G01*
X6001258Y6620510D01*
X6241541Y6620510D01*
X6241541Y6460236D01*
G37*
G36*
X6001258Y6206236D02*
G01*
X6001258Y6366510D01*
X6241541Y6366510D01*
X6241541Y6206236D01*
G37*
G36*
X6001258Y5952236D02*
G01*
X6001258Y6112510D01*
X6241541Y6112510D01*
X6241541Y5952236D01*
G37*
G36*
X6001258Y5698236D02*
G01*
X6001258Y5858510D01*
X6241541Y5858510D01*
X6241541Y5698236D01*
G37*
G36*
X6001258Y5444236D02*
G01*
X6001258Y5604510D01*
X6241541Y5604510D01*
X6241541Y5444236D01*
G37*
G36*
X6001258Y5190236D02*
G01*
X6001258Y5350510D01*
X6241541Y5350510D01*
X6241541Y5190236D01*
G37*
G36*
X6001258Y4936236D02*
G01*
X6001258Y5096510D01*
X6241541Y5096510D01*
X6241541Y4936236D01*
G37*
G36*
X6001258Y4682236D02*
G01*
X6001258Y4842510D01*
X6241541Y4842510D01*
X6241541Y4682236D01*
G37*
G36*
X6001258Y4428236D02*
G01*
X6001258Y4588510D01*
X6241541Y4588510D01*
X6241541Y4428236D01*
G37*
G36*
X6001258Y4174236D02*
G01*
X6001258Y4334510D01*
X6241541Y4334510D01*
X6241541Y4174236D01*
G37*
G36*
X6001258Y3920236D02*
G01*
X6001258Y4080510D01*
X6241541Y4080510D01*
X6241541Y3920236D01*
G37*
G36*
X6001258Y3666236D02*
G01*
X6001258Y3826510D01*
X6241541Y3826510D01*
X6241541Y3666236D01*
G37*
G36*
X6001258Y3412236D02*
G01*
X6001258Y3572510D01*
X6241541Y3572510D01*
X6241541Y3412236D01*
G37*
G36*
X6001258Y3158236D02*
G01*
X6001258Y3318510D01*
X6241541Y3318510D01*
X6241541Y3158236D01*
G37*
G36*
X7525258Y3158236D02*
G01*
X7525258Y3318510D01*
X7765541Y3318510D01*
X7765541Y3158236D01*
G37*
G36*
X7525258Y3412236D02*
G01*
X7525258Y3572510D01*
X7765541Y3572510D01*
X7765541Y3412236D01*
G37*
G36*
X7525258Y3666236D02*
G01*
X7525258Y3826510D01*
X7765541Y3826510D01*
X7765541Y3666236D01*
G37*
G36*
X7525258Y3920236D02*
G01*
X7525258Y4080510D01*
X7765541Y4080510D01*
X7765541Y3920236D01*
G37*
G36*
X7525258Y4174236D02*
G01*
X7525258Y4334510D01*
X7765541Y4334510D01*
X7765541Y4174236D01*
G37*
G36*
X7525258Y4428236D02*
G01*
X7525258Y4588510D01*
X7765541Y4588510D01*
X7765541Y4428236D01*
G37*
G36*
X7525258Y4682236D02*
G01*
X7525258Y4842510D01*
X7765541Y4842510D01*
X7765541Y4682236D01*
G37*
G36*
X7525258Y4936236D02*
G01*
X7525258Y5096510D01*
X7765541Y5096510D01*
X7765541Y4936236D01*
G37*
G36*
X7525258Y5190236D02*
G01*
X7525258Y5350510D01*
X7765541Y5350510D01*
X7765541Y5190236D01*
G37*
G36*
X7525258Y5444236D02*
G01*
X7525258Y5604510D01*
X7765541Y5604510D01*
X7765541Y5444236D01*
G37*
G36*
X7525258Y5698236D02*
G01*
X7525258Y5858510D01*
X7765541Y5858510D01*
X7765541Y5698236D01*
G37*
G36*
X7525258Y5952236D02*
G01*
X7525258Y6112510D01*
X7765541Y6112510D01*
X7765541Y5952236D01*
G37*
G36*
X7525258Y6206236D02*
G01*
X7525258Y6366510D01*
X7765541Y6366510D01*
X7765541Y6206236D01*
G37*
G36*
X7525258Y6460236D02*
G01*
X7525258Y6620510D01*
X7765541Y6620510D01*
X7765541Y6460236D01*
G37*
G36*
X7525258Y6714236D02*
G01*
X7525258Y6874510D01*
X7765541Y6874510D01*
X7765541Y6714236D01*
G37*
G36*
X7525258Y6968236D02*
G01*
X7525258Y7128510D01*
X7765541Y7128510D01*
X7765541Y6968236D01*
G37*
G36*
X7525258Y7222236D02*
G01*
X7525258Y7382510D01*
X7765541Y7382510D01*
X7765541Y7222236D01*
G37*
G36*
X7525258Y7476236D02*
G01*
X7525258Y7636510D01*
X7765541Y7636510D01*
X7765541Y7476236D01*
G37*
G36*
X7525258Y7730236D02*
G01*
X7525258Y7890510D01*
X7765541Y7890510D01*
X7765541Y7730236D01*
G37*
G36*
X7525258Y7984236D02*
G01*
X7525258Y8144510D01*
X7765541Y8144510D01*
X7765541Y7984236D01*
G37*
G36*
X8084058Y7984236D02*
G01*
X8084058Y8144510D01*
X8324341Y8144510D01*
X8324341Y7984236D01*
G37*
G36*
X8084058Y7730236D02*
G01*
X8084058Y7890510D01*
X8324341Y7890510D01*
X8324341Y7730236D01*
G37*
G36*
X8084058Y7476236D02*
G01*
X8084058Y7636510D01*
X8324341Y7636510D01*
X8324341Y7476236D01*
G37*
G36*
X8084058Y7222236D02*
G01*
X8084058Y7382510D01*
X8324341Y7382510D01*
X8324341Y7222236D01*
G37*
G36*
X8084058Y6968236D02*
G01*
X8084058Y7128510D01*
X8324341Y7128510D01*
X8324341Y6968236D01*
G37*
G36*
X8084058Y6714236D02*
G01*
X8084058Y6874510D01*
X8324341Y6874510D01*
X8324341Y6714236D01*
G37*
G36*
X8084058Y6460236D02*
G01*
X8084058Y6620510D01*
X8324341Y6620510D01*
X8324341Y6460236D01*
G37*
G36*
X8084058Y6206236D02*
G01*
X8084058Y6366510D01*
X8324341Y6366510D01*
X8324341Y6206236D01*
G37*
G36*
X8084058Y5952236D02*
G01*
X8084058Y6112510D01*
X8324341Y6112510D01*
X8324341Y5952236D01*
G37*
G36*
X8084058Y5698236D02*
G01*
X8084058Y5858510D01*
X8324341Y5858510D01*
X8324341Y5698236D01*
G37*
G36*
X8084058Y5444236D02*
G01*
X8084058Y5604510D01*
X8324341Y5604510D01*
X8324341Y5444236D01*
G37*
G36*
X8084058Y5190236D02*
G01*
X8084058Y5350510D01*
X8324341Y5350510D01*
X8324341Y5190236D01*
G37*
G36*
X8084058Y4936236D02*
G01*
X8084058Y5096510D01*
X8324341Y5096510D01*
X8324341Y4936236D01*
G37*
G36*
X8084058Y4682236D02*
G01*
X8084058Y4842510D01*
X8324341Y4842510D01*
X8324341Y4682236D01*
G37*
G36*
X8084058Y4428236D02*
G01*
X8084058Y4588510D01*
X8324341Y4588510D01*
X8324341Y4428236D01*
G37*
G36*
X8084058Y4174236D02*
G01*
X8084058Y4334510D01*
X8324341Y4334510D01*
X8324341Y4174236D01*
G37*
G36*
X8084058Y3920236D02*
G01*
X8084058Y4080510D01*
X8324341Y4080510D01*
X8324341Y3920236D01*
G37*
G36*
X8084058Y3666236D02*
G01*
X8084058Y3826510D01*
X8324341Y3826510D01*
X8324341Y3666236D01*
G37*
G36*
X8084058Y3412236D02*
G01*
X8084058Y3572510D01*
X8324341Y3572510D01*
X8324341Y3412236D01*
G37*
G36*
X8084058Y3158236D02*
G01*
X8084058Y3318510D01*
X8324341Y3318510D01*
X8324341Y3158236D01*
G37*
G36*
X9608058Y3158236D02*
G01*
X9608058Y3318510D01*
X9848341Y3318510D01*
X9848341Y3158236D01*
G37*
G36*
X9608058Y3412236D02*
G01*
X9608058Y3572510D01*
X9848341Y3572510D01*
X9848341Y3412236D01*
G37*
G36*
X9608058Y3666236D02*
G01*
X9608058Y3826510D01*
X9848341Y3826510D01*
X9848341Y3666236D01*
G37*
G36*
X9608058Y3920236D02*
G01*
X9608058Y4080510D01*
X9848341Y4080510D01*
X9848341Y3920236D01*
G37*
G36*
X9608058Y4174236D02*
G01*
X9608058Y4334510D01*
X9848341Y4334510D01*
X9848341Y4174236D01*
G37*
G36*
X9608058Y4428236D02*
G01*
X9608058Y4588510D01*
X9848341Y4588510D01*
X9848341Y4428236D01*
G37*
G36*
X9608058Y4682236D02*
G01*
X9608058Y4842510D01*
X9848341Y4842510D01*
X9848341Y4682236D01*
G37*
G36*
X9608058Y4936236D02*
G01*
X9608058Y5096510D01*
X9848341Y5096510D01*
X9848341Y4936236D01*
G37*
G36*
X9608058Y5190236D02*
G01*
X9608058Y5350510D01*
X9848341Y5350510D01*
X9848341Y5190236D01*
G37*
G36*
X9608058Y5444236D02*
G01*
X9608058Y5604510D01*
X9848341Y5604510D01*
X9848341Y5444236D01*
G37*
G36*
X9608058Y5698236D02*
G01*
X9608058Y5858510D01*
X9848341Y5858510D01*
X9848341Y5698236D01*
G37*
G36*
X9608058Y5952236D02*
G01*
X9608058Y6112510D01*
X9848341Y6112510D01*
X9848341Y5952236D01*
G37*
G36*
X9608058Y6206236D02*
G01*
X9608058Y6366510D01*
X9848341Y6366510D01*
X9848341Y6206236D01*
G37*
G36*
X9608058Y6460236D02*
G01*
X9608058Y6620510D01*
X9848341Y6620510D01*
X9848341Y6460236D01*
G37*
G36*
X9608058Y6714236D02*
G01*
X9608058Y6874510D01*
X9848341Y6874510D01*
X9848341Y6714236D01*
G37*
G36*
X9608058Y6968236D02*
G01*
X9608058Y7128510D01*
X9848341Y7128510D01*
X9848341Y6968236D01*
G37*
G36*
X9608058Y7222236D02*
G01*
X9608058Y7382510D01*
X9848341Y7382510D01*
X9848341Y7222236D01*
G37*
G36*
X9608058Y7476236D02*
G01*
X9608058Y7636510D01*
X9848341Y7636510D01*
X9848341Y7476236D01*
G37*
G36*
X9608058Y7730236D02*
G01*
X9608058Y7890510D01*
X9848341Y7890510D01*
X9848341Y7730236D01*
G37*
G36*
X9608058Y7984236D02*
G01*
X9608058Y8144510D01*
X9848341Y8144510D01*
X9848341Y7984236D01*
G37*
G36*
X10166858Y7984236D02*
G01*
X10166858Y8144510D01*
X10407141Y8144510D01*
X10407141Y7984236D01*
G37*
G36*
X10166858Y7730236D02*
G01*
X10166858Y7890510D01*
X10407141Y7890510D01*
X10407141Y7730236D01*
G37*
G36*
X10166858Y7476236D02*
G01*
X10166858Y7636510D01*
X10407141Y7636510D01*
X10407141Y7476236D01*
G37*
G36*
X10166858Y7222236D02*
G01*
X10166858Y7382510D01*
X10407141Y7382510D01*
X10407141Y7222236D01*
G37*
G36*
X10166858Y6968236D02*
G01*
X10166858Y7128510D01*
X10407141Y7128510D01*
X10407141Y6968236D01*
G37*
G36*
X10166858Y6714236D02*
G01*
X10166858Y6874510D01*
X10407141Y6874510D01*
X10407141Y6714236D01*
G37*
G36*
X10166858Y6460236D02*
G01*
X10166858Y6620510D01*
X10407141Y6620510D01*
X10407141Y6460236D01*
G37*
G36*
X10166858Y6206236D02*
G01*
X10166858Y6366510D01*
X10407141Y6366510D01*
X10407141Y6206236D01*
G37*
G36*
X10166858Y5952236D02*
G01*
X10166858Y6112510D01*
X10407141Y6112510D01*
X10407141Y5952236D01*
G37*
G36*
X10166858Y5698236D02*
G01*
X10166858Y5858510D01*
X10407141Y5858510D01*
X10407141Y5698236D01*
G37*
G36*
X10166858Y5444236D02*
G01*
X10166858Y5604510D01*
X10407141Y5604510D01*
X10407141Y5444236D01*
G37*
G36*
X10166858Y5190236D02*
G01*
X10166858Y5350510D01*
X10407141Y5350510D01*
X10407141Y5190236D01*
G37*
G36*
X10166858Y4936236D02*
G01*
X10166858Y5096510D01*
X10407141Y5096510D01*
X10407141Y4936236D01*
G37*
G36*
X10166858Y4682236D02*
G01*
X10166858Y4842510D01*
X10407141Y4842510D01*
X10407141Y4682236D01*
G37*
G36*
X10166858Y4428236D02*
G01*
X10166858Y4588510D01*
X10407141Y4588510D01*
X10407141Y4428236D01*
G37*
G36*
X10166858Y4174236D02*
G01*
X10166858Y4334510D01*
X10407141Y4334510D01*
X10407141Y4174236D01*
G37*
G36*
X10166858Y3920236D02*
G01*
X10166858Y4080510D01*
X10407141Y4080510D01*
X10407141Y3920236D01*
G37*
G36*
X10166858Y3666236D02*
G01*
X10166858Y3826510D01*
X10407141Y3826510D01*
X10407141Y3666236D01*
G37*
G36*
X10166858Y3412236D02*
G01*
X10166858Y3572510D01*
X10407141Y3572510D01*
X10407141Y3412236D01*
G37*
G36*
X10166858Y3158236D02*
G01*
X10166858Y3318510D01*
X10407141Y3318510D01*
X10407141Y3158236D01*
G37*
G36*
X11690858Y3158236D02*
G01*
X11690858Y3318510D01*
X11931141Y3318510D01*
X11931141Y3158236D01*
G37*
G36*
X11690858Y3412236D02*
G01*
X11690858Y3572510D01*
X11931141Y3572510D01*
X11931141Y3412236D01*
G37*
G36*
X11690858Y3666236D02*
G01*
X11690858Y3826510D01*
X11931141Y3826510D01*
X11931141Y3666236D01*
G37*
G36*
X11690858Y3920236D02*
G01*
X11690858Y4080510D01*
X11931141Y4080510D01*
X11931141Y3920236D01*
G37*
G36*
X11690858Y4174236D02*
G01*
X11690858Y4334510D01*
X11931141Y4334510D01*
X11931141Y4174236D01*
G37*
G36*
X11690858Y4428236D02*
G01*
X11690858Y4588510D01*
X11931141Y4588510D01*
X11931141Y4428236D01*
G37*
G36*
X11690858Y4682236D02*
G01*
X11690858Y4842510D01*
X11931141Y4842510D01*
X11931141Y4682236D01*
G37*
G36*
X11690858Y4936236D02*
G01*
X11690858Y5096510D01*
X11931141Y5096510D01*
X11931141Y4936236D01*
G37*
G36*
X11690858Y5190236D02*
G01*
X11690858Y5350510D01*
X11931141Y5350510D01*
X11931141Y5190236D01*
G37*
G36*
X11690858Y5444236D02*
G01*
X11690858Y5604510D01*
X11931141Y5604510D01*
X11931141Y5444236D01*
G37*
G36*
X11690858Y5698236D02*
G01*
X11690858Y5858510D01*
X11931141Y5858510D01*
X11931141Y5698236D01*
G37*
G36*
X11690858Y5952236D02*
G01*
X11690858Y6112510D01*
X11931141Y6112510D01*
X11931141Y5952236D01*
G37*
G36*
X11690858Y6206236D02*
G01*
X11690858Y6366510D01*
X11931141Y6366510D01*
X11931141Y6206236D01*
G37*
G36*
X11690858Y6460236D02*
G01*
X11690858Y6620510D01*
X11931141Y6620510D01*
X11931141Y6460236D01*
G37*
G36*
X11690858Y6714236D02*
G01*
X11690858Y6874510D01*
X11931141Y6874510D01*
X11931141Y6714236D01*
G37*
G36*
X11690858Y6968236D02*
G01*
X11690858Y7128510D01*
X11931141Y7128510D01*
X11931141Y6968236D01*
G37*
G36*
X11690858Y7222236D02*
G01*
X11690858Y7382510D01*
X11931141Y7382510D01*
X11931141Y7222236D01*
G37*
G36*
X11690858Y7476236D02*
G01*
X11690858Y7636510D01*
X11931141Y7636510D01*
X11931141Y7476236D01*
G37*
G36*
X11690858Y7730236D02*
G01*
X11690858Y7890510D01*
X11931141Y7890510D01*
X11931141Y7730236D01*
G37*
G36*
X11690858Y7984236D02*
G01*
X11690858Y8144510D01*
X11931141Y8144510D01*
X11931141Y7984236D01*
G37*
D46*
G01*
X1117600Y7302500D03*
D47*
G01*
X1117600Y7556500D03*
G01*
X1117600Y7810500D03*
G01*
X1117600Y8064500D03*
G01*
X1117600Y8318500D03*
G01*
X1117600Y8572500D03*
G01*
X1117600Y8826500D03*
G01*
X1117600Y9080500D03*
G01*
X355600Y9080500D03*
G01*
X355600Y8826500D03*
G01*
X355600Y8572500D03*
G01*
X355600Y8318500D03*
G01*
X355600Y8064500D03*
G01*
X355600Y7810500D03*
G01*
X355600Y7556500D03*
G01*
X355600Y7302500D03*
D50*
G01*
X2946400Y8788400D03*
G01*
X2946400Y9042400D03*
D45*
G01*
X1485900Y8750300D03*
G01*
X1485900Y7988300D03*
D51*
G01*
X13652500Y928700D03*
G01*
X13652500Y1128699D03*
D52*
G01*
X12484100Y2197100D03*
G01*
X12484100Y1943100D03*
G01*
X3657600Y9309100D03*
G01*
X3657600Y9563100D03*
D46*
G01*
X13995400Y3238500D03*
D47*
G01*
X13995400Y3492500D03*
G01*
X13995400Y3746500D03*
G01*
X13995400Y4000500D03*
G01*
X13995400Y4254500D03*
G01*
X13995400Y4508500D03*
G01*
X13995400Y4762500D03*
G01*
X13995400Y5016500D03*
G01*
X13995400Y5270500D03*
G01*
X13995400Y5524500D03*
G01*
X13995400Y5778500D03*
G01*
X13995400Y6032500D03*
G01*
X13995400Y6286500D03*
G01*
X13995400Y6540500D03*
G01*
X12471400Y6540500D03*
G01*
X12471400Y6286500D03*
G01*
X12471400Y6032500D03*
G01*
X12471400Y5778500D03*
G01*
X12471400Y5524500D03*
G01*
X12471400Y5270500D03*
G01*
X12471400Y5016500D03*
G01*
X12471400Y4762500D03*
G01*
X12471400Y4508500D03*
G01*
X12471400Y4254500D03*
G01*
X12471400Y4000500D03*
G01*
X12471400Y3746500D03*
G01*
X12471400Y3492500D03*
G01*
X12471400Y3238500D03*
G36*
X1824989Y529589D02*
G01*
X1824989Y689610D01*
X1985009Y689610D01*
X1985009Y529589D01*
G37*
G01*
X2159000Y609600D03*
G01*
X2413000Y609600D03*
G01*
X2667000Y609600D03*
G01*
X2921000Y609600D03*
G01*
X3175000Y609600D03*
G01*
X3429000Y609600D03*
G01*
X3683000Y609600D03*
G01*
X3937000Y609600D03*
G01*
X4191000Y609600D03*
G01*
X4445000Y609600D03*
G01*
X4699000Y609600D03*
G01*
X4953000Y609600D03*
G01*
X5207000Y609600D03*
G01*
X5207000Y2133600D03*
G01*
X4953000Y2133600D03*
G01*
X4699000Y2133600D03*
G01*
X4445000Y2133600D03*
G01*
X4191000Y2133600D03*
G01*
X3937000Y2133600D03*
G01*
X3683000Y2133600D03*
G01*
X3429000Y2133600D03*
G01*
X3175000Y2133600D03*
G01*
X2921000Y2133600D03*
G01*
X2667000Y2133600D03*
G01*
X2413000Y2133600D03*
G01*
X2159000Y2133600D03*
G01*
X1905000Y2133600D03*
D46*
G01*
X1879600Y3238500D03*
D47*
G01*
X1879600Y3492500D03*
G01*
X1879600Y3746500D03*
G01*
X1879600Y4000500D03*
G01*
X1879600Y4254500D03*
G01*
X1879600Y4508500D03*
G01*
X1879600Y4762500D03*
G01*
X1879600Y5016500D03*
G01*
X1879600Y5270500D03*
G01*
X1879600Y5524500D03*
G01*
X1879600Y5778500D03*
G01*
X1879600Y6032500D03*
G01*
X1879600Y6286500D03*
G01*
X1879600Y6540500D03*
G01*
X355600Y6540500D03*
G01*
X355600Y6286500D03*
G01*
X355600Y6032500D03*
G01*
X355600Y5778500D03*
G01*
X355600Y5524500D03*
G01*
X355600Y5270500D03*
G01*
X355600Y5016500D03*
G01*
X355600Y4762500D03*
G01*
X355600Y4508500D03*
G01*
X355600Y4254500D03*
G01*
X355600Y4000500D03*
G01*
X355600Y3746500D03*
G01*
X355600Y3492500D03*
G01*
X355600Y3238500D03*
D53*
G01*
X3187700Y3416300D03*
D54*
G01*
X2425700Y3416300D03*
G01*
X2425700Y4940300D03*
G01*
X3187700Y4940300D03*
G36*
X12355829Y7440929D02*
G01*
X12355829Y7621270D01*
X12536170Y7621270D01*
X12536170Y7440929D01*
G37*
G01*
X12446000Y8293100D03*
G01*
X13970000Y8293100D03*
G01*
X13970000Y7531100D03*
D53*
G01*
X3187700Y6286500D03*
D54*
G01*
X2425700Y6286500D03*
G01*
X2425700Y7810500D03*
G01*
X3187700Y7810500D03*
G36*
X2589529Y5618479D02*
G01*
X2589529Y5786120D01*
X2769870Y5786120D01*
X2769870Y5618479D01*
G37*
D56*
G01*
X2425700Y5702300D03*
G36*
X12984479Y1827529D02*
G01*
X12984479Y2007870D01*
X13152120Y2007870D01*
X13152120Y1827529D01*
G37*
G01*
X13068300Y2171700D03*
D58*
G01*
X14439900Y1917700D03*
D59*
G01*
X14185900Y1917700D03*
G01*
X14439900Y2171700D03*
G01*
X14185900Y2171700D03*
G01*
X14439900Y2425700D03*
G01*
X14185900Y2425700D03*
G01*
X14439900Y2679700D03*
G01*
X14185900Y2679700D03*
D60*
G01*
X5321300Y8470900D03*
G01*
X5575300Y8470900D03*
G01*
X355600Y1206500D03*
G01*
X355600Y952500D03*
G01*
X609600Y2895600D03*
G01*
X863600Y2895600D03*
G01*
X6121400Y2832100D03*
G01*
X6375400Y2832100D03*
G01*
X8204200Y2832100D03*
G01*
X8458200Y2832100D03*
G01*
X10287000Y2832100D03*
G01*
X10541000Y2832100D03*
G01*
X12725400Y6946900D03*
G01*
X12471400Y6946900D03*
G01*
X8864600Y1422400D03*
G01*
X9118600Y1422400D03*
G01*
X11391900Y1739900D03*
G01*
X11391900Y1993900D03*
G01*
X546100Y6972300D03*
G01*
X800100Y6972300D03*
G01*
X14109700Y1168400D03*
G01*
X14109700Y914400D03*
G01*
X12611100Y1485900D03*
G01*
X12357100Y1485900D03*
G36*
X14508479Y9009379D02*
G01*
X14508479Y9177020D01*
X14676120Y9177020D01*
X14676120Y9009379D01*
G37*
D59*
G01*
X14592300Y8839200D03*
G01*
X14592300Y8585200D03*
G01*
X14592300Y8331200D03*
G01*
X14592300Y8077200D03*
G01*
X14592300Y7823200D03*
G01*
X14592300Y7569200D03*
G01*
X14592300Y7315200D03*
G36*
X14102079Y9225279D02*
G01*
X14102079Y9392920D01*
X14269720Y9392920D01*
X14269720Y9225279D01*
G37*
G01*
X13931900Y9309100D03*
G01*
X13677900Y9309100D03*
G01*
X13423900Y9309100D03*
G01*
X13169900Y9309100D03*
G01*
X12915900Y9309100D03*
G01*
X12661900Y9309100D03*
G01*
X12407900Y9309100D03*
G36*
X7383779Y170179D02*
G01*
X7383779Y337820D01*
X7551420Y337820D01*
X7551420Y170179D01*
G37*
G01*
X7721600Y254000D03*
G01*
X7975600Y254000D03*
G01*
X8229600Y254000D03*
G01*
X8483600Y254000D03*
G01*
X8737600Y254000D03*
G01*
X8991600Y254000D03*
G01*
X9245600Y254000D03*
G01*
X9499600Y254000D03*
G01*
X9753600Y254000D03*
G01*
X10007600Y254000D03*
G01*
X10261600Y254000D03*
G01*
X10515600Y254000D03*
G01*
X10769600Y254000D03*
G01*
X11023600Y254000D03*
G01*
X11277600Y254000D03*
G36*
X14508479Y6913879D02*
G01*
X14508479Y7081520D01*
X14676120Y7081520D01*
X14676120Y6913879D01*
G37*
G01*
X14592300Y6743700D03*
G01*
X14592300Y6489700D03*
G01*
X14592300Y6235700D03*
G01*
X14592300Y5981700D03*
G01*
X14592300Y5727700D03*
G01*
X14592300Y5473700D03*
G01*
X14592300Y5219700D03*
G01*
X14592300Y4965700D03*
G01*
X14592300Y4711700D03*
G01*
X14592300Y4457700D03*
G01*
X14592300Y4203700D03*
G01*
X14592300Y3949700D03*
G01*
X14592300Y3695700D03*
G01*
X14592300Y3441700D03*
G01*
X14592300Y3187700D03*
G36*
X4122420Y9227820D02*
G01*
X4122420Y9390379D01*
X4284979Y9390379D01*
X4284979Y9227820D01*
G37*
D50*
G01*
X4203700Y9563100D03*
G01*
X4457700Y9309100D03*
G01*
X4457700Y9563100D03*
G36*
X6865620Y9227820D02*
G01*
X6865620Y9390379D01*
X7028179Y9390379D01*
X7028179Y9227820D01*
G37*
G01*
X6946900Y9563100D03*
G01*
X7200900Y9309100D03*
G01*
X7200900Y9563100D03*
G36*
X9608820Y9227820D02*
G01*
X9608820Y9390379D01*
X9771379Y9390379D01*
X9771379Y9227820D01*
G37*
G01*
X9690100Y9563100D03*
G01*
X9944100Y9309100D03*
G01*
X9944100Y9563100D03*
G36*
X14356079Y1084579D02*
G01*
X14356079Y1252220D01*
X14523720Y1252220D01*
X14523720Y1084579D01*
G37*
D59*
G01*
X14439900Y914400D03*
D58*
G01*
X3073400Y9563100D03*
D59*
G01*
X2819400Y9563100D03*
D62*
G01*
X6565900Y9563100D03*
G01*
X6565900Y9309100D03*
G01*
X6311900Y9563100D03*
G01*
X6311900Y9309100D03*
G01*
X6057900Y9563100D03*
G01*
X6057900Y9309100D03*
G01*
X5803900Y9563100D03*
G01*
X5803900Y9309100D03*
G01*
X5549900Y9563100D03*
G01*
X5549900Y9309100D03*
G01*
X5295900Y9563100D03*
G01*
X5295900Y9309100D03*
G01*
X5041900Y9563100D03*
G01*
X5041900Y9309100D03*
G01*
X4787900Y9563100D03*
G36*
X4692904Y9214104D02*
G01*
X4692904Y9404095D01*
X4882895Y9404095D01*
X4882895Y9214104D01*
G37*
G01*
X9309100Y9563100D03*
G01*
X9309100Y9309100D03*
G01*
X9055100Y9563100D03*
G01*
X9055100Y9309100D03*
G01*
X8801100Y9563100D03*
G01*
X8801100Y9309100D03*
G01*
X8547100Y9563100D03*
G01*
X8547100Y9309100D03*
G01*
X8293100Y9563100D03*
G01*
X8293100Y9309100D03*
G01*
X8039100Y9563100D03*
G01*
X8039100Y9309100D03*
G01*
X7785100Y9563100D03*
G01*
X7785100Y9309100D03*
G01*
X7531100Y9563100D03*
G36*
X7436104Y9214104D02*
G01*
X7436104Y9404095D01*
X7626095Y9404095D01*
X7626095Y9214104D01*
G37*
G01*
X12052300Y9563100D03*
G01*
X12052300Y9309100D03*
G01*
X11798300Y9563100D03*
G01*
X11798300Y9309100D03*
G01*
X11544300Y9563100D03*
G01*
X11544300Y9309100D03*
G01*
X11290300Y9563100D03*
G01*
X11290300Y9309100D03*
G01*
X11036300Y9563100D03*
G01*
X11036300Y9309100D03*
G01*
X10782300Y9563100D03*
G01*
X10782300Y9309100D03*
G01*
X10528300Y9563100D03*
G01*
X10528300Y9309100D03*
G01*
X10274300Y9563100D03*
G36*
X10179304Y9214104D02*
G01*
X10179304Y9404095D01*
X10369295Y9404095D01*
X10369295Y9214104D01*
G37*
D64*
G01*
X7975600Y800100D03*
G01*
X8229600Y800100D03*
G01*
X8483600Y800100D03*
D45*
G01*
X3657600Y8470900D03*
G01*
X4419600Y8470900D03*
G01*
X3733800Y7810500D03*
G01*
X3733800Y7048500D03*
G01*
X13347700Y1447800D03*
G01*
X14109700Y1447800D03*
G01*
X3733800Y6794500D03*
G01*
X3733800Y6032500D03*
G01*
X12471400Y2832100D03*
G01*
X13233400Y2832100D03*
D62*
G01*
X12158979Y1164844D03*
G01*
X12158979Y714755D03*
G01*
X12809220Y1164844D03*
G01*
X12809220Y714755D03*
D50*
G01*
X1803425Y9649993D03*
G01*
X2053412Y9400006D03*
G01*
X1553413Y9400006D03*
G36*
X11746229Y706881D02*
G01*
X11746229Y817118D01*
X11926570Y817118D01*
X11926570Y706881D01*
G37*
M02*
